STARTFONT 2.1
FONT -FontForge-Noto Mono-Book-R-Normal--10-100-75-75-P-59-ISO8859-1
SIZE 10 75 75
FONTBOUNDINGBOX 8 16 -1 -4
COMMENT "Generated by fontforge, http://fontforge.sourceforge.net"
COMMENT "Copyright 2007 Google Inc. All Rights Reserved."
STARTPROPERTIES 41
FOUNDRY "FontForge"
FAMILY_NAME "Noto Mono"
WEIGHT_NAME "Book"
SLANT "R"
SETWIDTH_NAME "Normal"
ADD_STYLE_NAME ""
PIXEL_SIZE 10
POINT_SIZE 100
RESOLUTION_X 75
RESOLUTION_Y 75
SPACING "P"
AVERAGE_WIDTH 59
CHARSET_REGISTRY "ISO8859"
CHARSET_ENCODING "1"
FONTNAME_REGISTRY ""
CHARSET_COLLECTIONS "ISO8859-2 ISO8859-5 ISO8859-7 ISO8859-9 ISO8859-4 ISOLatin1Encoding"
FONT_NAME "NotoMono"
FACE_NAME "Noto Mono"
COPYRIGHT "Copyright 2007 Google Inc. All Rights Reserved."
FONT_VERSION "1.00"
FONT_ASCENT 8
FONT_DESCENT 2
UNDERLINE_POSITION -1
UNDERLINE_THICKNESS 1
X_HEIGHT 4
CAP_HEIGHT 6
DEFAULT_CHAR 1
RAW_ASCENT 799
RAW_DESCENT 200
NORM_SPACE 6
RELATIVE_WEIGHT 40
RELATIVE_SETWIDTH 50
SUPERSCRIPT_X 0
SUPERSCRIPT_Y 4
SUPERSCRIPT_SIZE 6
SUBSCRIPT_X 0
SUBSCRIPT_Y 1
SUBSCRIPT_SIZE 6
FIGURE_WIDTH 6
AVG_LOWERCASE_WIDTH 60
AVG_UPPERCASE_WIDTH 60
ENDPROPERTIES
CHARS 897
STARTCHAR uni0000
ENCODING 0
SWIDTH 0 0
DWIDTH 0 0
BBX 1 1 0 0
BITMAP
00
ENDCHAR
STARTCHAR uni000D
ENCODING 13
SWIDTH 600 0
DWIDTH 6 0
BBX 1 1 0 0
BITMAP
00
ENDCHAR
STARTCHAR space
ENCODING 32
SWIDTH 600 0
DWIDTH 6 0
BBX 1 1 0 0
BITMAP
00
ENDCHAR
STARTCHAR exclam
ENCODING 33
SWIDTH 600 0
DWIDTH 6 0
BBX 1 7 2 0
BITMAP
80
80
80
80
80
00
80
ENDCHAR
STARTCHAR quotedbl
ENCODING 34
SWIDTH 600 0
DWIDTH 6 0
BBX 3 3 1 4
BITMAP
A0
A0
A0
ENDCHAR
STARTCHAR numbersign
ENCODING 35
SWIDTH 600 0
DWIDTH 6 0
BBX 6 7 0 0
BITMAP
28
28
FC
50
FC
50
50
ENDCHAR
STARTCHAR dollar
ENCODING 36
SWIDTH 600 0
DWIDTH 6 0
BBX 4 9 1 -1
BITMAP
20
70
A0
A0
60
50
50
E0
40
ENDCHAR
STARTCHAR percent
ENCODING 37
SWIDTH 600 0
DWIDTH 6 0
BBX 6 7 0 0
BITMAP
48
B0
50
20
28
34
48
ENDCHAR
STARTCHAR ampersand
ENCODING 38
SWIDTH 600 0
DWIDTH 6 0
BBX 5 7 1 0
BITMAP
E0
A0
A0
50
B0
90
E8
ENDCHAR
STARTCHAR quotesingle
ENCODING 39
SWIDTH 600 0
DWIDTH 6 0
BBX 1 3 2 4
BITMAP
80
80
80
ENDCHAR
STARTCHAR parenleft
ENCODING 40
SWIDTH 600 0
DWIDTH 6 0
BBX 3 9 2 -2
BITMAP
20
40
80
80
80
80
80
40
20
ENDCHAR
STARTCHAR parenright
ENCODING 41
SWIDTH 600 0
DWIDTH 6 0
BBX 3 9 1 -2
BITMAP
80
40
20
20
20
20
20
40
80
ENDCHAR
STARTCHAR asterisk
ENCODING 42
SWIDTH 600 0
DWIDTH 6 0
BBX 5 5 0 2
BITMAP
20
20
F8
50
50
ENDCHAR
STARTCHAR plus
ENCODING 43
SWIDTH 600 0
DWIDTH 6 0
BBX 5 5 1 1
BITMAP
20
20
F8
20
20
ENDCHAR
STARTCHAR comma
ENCODING 44
SWIDTH 600 0
DWIDTH 6 0
BBX 2 3 1 -1
BITMAP
40
40
80
ENDCHAR
STARTCHAR hyphen
ENCODING 45
SWIDTH 600 0
DWIDTH 6 0
BBX 4 1 1 2
BITMAP
F0
ENDCHAR
STARTCHAR period
ENCODING 46
SWIDTH 600 0
DWIDTH 6 0
BBX 1 2 2 0
BITMAP
80
80
ENDCHAR
STARTCHAR slash
ENCODING 47
SWIDTH 600 0
DWIDTH 6 0
BBX 4 7 1 0
BITMAP
10
20
20
40
40
40
80
ENDCHAR
STARTCHAR zero
ENCODING 48
SWIDTH 600 0
DWIDTH 6 0
BBX 4 7 1 0
BITMAP
60
90
90
90
90
90
60
ENDCHAR
STARTCHAR one
ENCODING 49
SWIDTH 600 0
DWIDTH 6 0
BBX 3 7 1 0
BITMAP
60
A0
20
20
20
20
20
ENDCHAR
STARTCHAR two
ENCODING 50
SWIDTH 600 0
DWIDTH 6 0
BBX 4 7 1 0
BITMAP
E0
10
10
20
20
40
F0
ENDCHAR
STARTCHAR three
ENCODING 51
SWIDTH 600 0
DWIDTH 6 0
BBX 4 7 1 0
BITMAP
F0
10
10
60
10
10
E0
ENDCHAR
STARTCHAR four
ENCODING 52
SWIDTH 600 0
DWIDTH 6 0
BBX 4 7 1 0
BITMAP
20
20
60
60
A0
F0
20
ENDCHAR
STARTCHAR five
ENCODING 53
SWIDTH 600 0
DWIDTH 6 0
BBX 4 7 1 0
BITMAP
F0
80
80
E0
10
10
E0
ENDCHAR
STARTCHAR six
ENCODING 54
SWIDTH 600 0
DWIDTH 6 0
BBX 4 7 1 0
BITMAP
70
C0
80
F0
90
90
60
ENDCHAR
STARTCHAR seven
ENCODING 55
SWIDTH 600 0
DWIDTH 6 0
BBX 4 7 1 0
BITMAP
F0
10
20
20
20
40
40
ENDCHAR
STARTCHAR eight
ENCODING 56
SWIDTH 600 0
DWIDTH 6 0
BBX 4 7 1 0
BITMAP
F0
90
90
60
90
90
60
ENDCHAR
STARTCHAR nine
ENCODING 57
SWIDTH 600 0
DWIDTH 6 0
BBX 4 7 1 0
BITMAP
60
90
90
F0
10
30
E0
ENDCHAR
STARTCHAR colon
ENCODING 58
SWIDTH 600 0
DWIDTH 6 0
BBX 1 5 2 0
BITMAP
80
00
00
00
80
ENDCHAR
STARTCHAR semicolon
ENCODING 59
SWIDTH 600 0
DWIDTH 6 0
BBX 2 6 1 -1
BITMAP
40
00
00
40
40
80
ENDCHAR
STARTCHAR less
ENCODING 60
SWIDTH 600 0
DWIDTH 6 0
BBX 4 5 1 1
BITMAP
10
60
80
60
10
ENDCHAR
STARTCHAR equal
ENCODING 61
SWIDTH 600 0
DWIDTH 6 0
BBX 4 3 1 2
BITMAP
F0
00
F0
ENDCHAR
STARTCHAR greater
ENCODING 62
SWIDTH 600 0
DWIDTH 6 0
BBX 4 5 1 1
BITMAP
80
60
10
60
80
ENDCHAR
STARTCHAR question
ENCODING 63
SWIDTH 600 0
DWIDTH 6 0
BBX 4 7 1 0
BITMAP
E0
10
10
20
40
00
40
ENDCHAR
STARTCHAR at
ENCODING 64
SWIDTH 600 0
DWIDTH 6 0
BBX 6 8 0 -1
BITMAP
78
84
B4
D4
D4
BC
80
78
ENDCHAR
STARTCHAR A
ENCODING 65
SWIDTH 600 0
DWIDTH 6 0
BBX 6 7 0 0
BITMAP
30
30
30
48
78
84
84
ENDCHAR
STARTCHAR B
ENCODING 66
SWIDTH 600 0
DWIDTH 6 0
BBX 4 7 1 0
BITMAP
F0
90
90
E0
90
90
E0
ENDCHAR
STARTCHAR C
ENCODING 67
SWIDTH 600 0
DWIDTH 6 0
BBX 4 7 1 0
BITMAP
70
80
80
80
80
80
70
ENDCHAR
STARTCHAR D
ENCODING 68
SWIDTH 600 0
DWIDTH 6 0
BBX 4 7 1 0
BITMAP
E0
90
90
90
90
90
E0
ENDCHAR
STARTCHAR E
ENCODING 69
SWIDTH 600 0
DWIDTH 6 0
BBX 4 7 1 0
BITMAP
F0
80
80
F0
80
80
F0
ENDCHAR
STARTCHAR F
ENCODING 70
SWIDTH 600 0
DWIDTH 6 0
BBX 4 7 1 0
BITMAP
F0
80
80
F0
80
80
80
ENDCHAR
STARTCHAR G
ENCODING 71
SWIDTH 600 0
DWIDTH 6 0
BBX 4 7 1 0
BITMAP
70
80
80
B0
90
90
70
ENDCHAR
STARTCHAR H
ENCODING 72
SWIDTH 600 0
DWIDTH 6 0
BBX 4 7 1 0
BITMAP
90
90
90
F0
90
90
90
ENDCHAR
STARTCHAR I
ENCODING 73
SWIDTH 600 0
DWIDTH 6 0
BBX 3 7 1 0
BITMAP
E0
40
40
40
40
40
E0
ENDCHAR
STARTCHAR J
ENCODING 74
SWIDTH 600 0
DWIDTH 6 0
BBX 3 7 1 0
BITMAP
20
20
20
20
20
20
C0
ENDCHAR
STARTCHAR K
ENCODING 75
SWIDTH 600 0
DWIDTH 6 0
BBX 4 7 1 0
BITMAP
90
A0
A0
C0
A0
A0
90
ENDCHAR
STARTCHAR L
ENCODING 76
SWIDTH 600 0
DWIDTH 6 0
BBX 4 7 1 0
BITMAP
80
80
80
80
80
80
F0
ENDCHAR
STARTCHAR M
ENCODING 77
SWIDTH 600 0
DWIDTH 6 0
BBX 5 7 0 0
BITMAP
88
88
D8
D8
D8
A8
A8
ENDCHAR
STARTCHAR N
ENCODING 78
SWIDTH 600 0
DWIDTH 6 0
BBX 4 7 1 0
BITMAP
90
90
D0
D0
B0
90
90
ENDCHAR
STARTCHAR O
ENCODING 79
SWIDTH 600 0
DWIDTH 6 0
BBX 4 7 1 0
BITMAP
60
90
90
90
90
90
60
ENDCHAR
STARTCHAR P
ENCODING 80
SWIDTH 600 0
DWIDTH 6 0
BBX 4 7 1 0
BITMAP
E0
90
90
90
E0
80
80
ENDCHAR
STARTCHAR Q
ENCODING 81
SWIDTH 600 0
DWIDTH 6 0
BBX 4 9 1 -2
BITMAP
60
90
90
90
90
90
60
20
10
ENDCHAR
STARTCHAR R
ENCODING 82
SWIDTH 600 0
DWIDTH 6 0
BBX 5 7 1 0
BITMAP
E0
90
90
E0
A0
90
88
ENDCHAR
STARTCHAR S
ENCODING 83
SWIDTH 600 0
DWIDTH 6 0
BBX 4 7 1 0
BITMAP
70
80
80
60
10
10
E0
ENDCHAR
STARTCHAR T
ENCODING 84
SWIDTH 600 0
DWIDTH 6 0
BBX 5 7 0 0
BITMAP
F8
20
20
20
20
20
20
ENDCHAR
STARTCHAR U
ENCODING 85
SWIDTH 600 0
DWIDTH 6 0
BBX 4 7 1 0
BITMAP
90
90
90
90
90
90
60
ENDCHAR
STARTCHAR V
ENCODING 86
SWIDTH 600 0
DWIDTH 6 0
BBX 6 7 0 0
BITMAP
84
84
48
48
30
30
30
ENDCHAR
STARTCHAR W
ENCODING 87
SWIDTH 600 0
DWIDTH 6 0
BBX 5 7 0 0
BITMAP
88
88
A8
A8
A8
50
50
ENDCHAR
STARTCHAR X
ENCODING 88
SWIDTH 600 0
DWIDTH 6 0
BBX 6 7 0 0
BITMAP
84
48
30
20
30
48
84
ENDCHAR
STARTCHAR Y
ENCODING 89
SWIDTH 600 0
DWIDTH 6 0
BBX 5 7 0 0
BITMAP
88
50
50
20
20
20
20
ENDCHAR
STARTCHAR Z
ENCODING 90
SWIDTH 600 0
DWIDTH 6 0
BBX 4 7 1 0
BITMAP
F0
10
20
40
40
80
F0
ENDCHAR
STARTCHAR bracketleft
ENCODING 91
SWIDTH 600 0
DWIDTH 6 0
BBX 3 9 2 -2
BITMAP
E0
80
80
80
80
80
80
80
E0
ENDCHAR
STARTCHAR backslash
ENCODING 92
SWIDTH 600 0
DWIDTH 6 0
BBX 4 7 1 0
BITMAP
80
40
40
40
20
20
10
ENDCHAR
STARTCHAR bracketright
ENCODING 93
SWIDTH 600 0
DWIDTH 6 0
BBX 3 9 1 -2
BITMAP
E0
20
20
20
20
20
20
20
E0
ENDCHAR
STARTCHAR asciicircum
ENCODING 94
SWIDTH 600 0
DWIDTH 6 0
BBX 4 4 1 3
BITMAP
40
60
60
90
ENDCHAR
STARTCHAR underscore
ENCODING 95
SWIDTH 600 0
DWIDTH 6 0
BBX 4 1 1 -2
BITMAP
F0
ENDCHAR
STARTCHAR grave
ENCODING 96
SWIDTH 600 0
DWIDTH 6 0
BBX 2 2 2 6
BITMAP
80
40
ENDCHAR
STARTCHAR a
ENCODING 97
SWIDTH 600 0
DWIDTH 6 0
BBX 4 5 1 0
BITMAP
F0
10
F0
90
F0
ENDCHAR
STARTCHAR b
ENCODING 98
SWIDTH 600 0
DWIDTH 6 0
BBX 4 7 1 0
BITMAP
80
80
E0
90
90
90
E0
ENDCHAR
STARTCHAR c
ENCODING 99
SWIDTH 600 0
DWIDTH 6 0
BBX 4 5 1 0
BITMAP
70
80
80
80
70
ENDCHAR
STARTCHAR d
ENCODING 100
SWIDTH 600 0
DWIDTH 6 0
BBX 4 7 1 0
BITMAP
10
10
70
90
90
90
70
ENDCHAR
STARTCHAR e
ENCODING 101
SWIDTH 600 0
DWIDTH 6 0
BBX 4 5 1 0
BITMAP
60
90
F0
80
70
ENDCHAR
STARTCHAR f
ENCODING 102
SWIDTH 600 0
DWIDTH 6 0
BBX 5 7 0 0
BITMAP
38
20
F8
20
20
20
20
ENDCHAR
STARTCHAR g
ENCODING 103
SWIDTH 600 0
DWIDTH 6 0
BBX 5 7 1 -2
BITMAP
F8
90
F0
80
F8
88
F0
ENDCHAR
STARTCHAR h
ENCODING 104
SWIDTH 600 0
DWIDTH 6 0
BBX 4 7 1 0
BITMAP
80
80
E0
90
90
90
90
ENDCHAR
STARTCHAR i
ENCODING 105
SWIDTH 600 0
DWIDTH 6 0
BBX 5 7 1 0
BITMAP
20
00
60
20
20
20
F8
ENDCHAR
STARTCHAR j
ENCODING 106
SWIDTH 600 0
DWIDTH 6 0
BBX 3 9 1 -2
BITMAP
20
00
E0
20
20
20
20
20
E0
ENDCHAR
STARTCHAR k
ENCODING 107
SWIDTH 600 0
DWIDTH 6 0
BBX 5 7 1 0
BITMAP
80
80
90
A0
E0
90
88
ENDCHAR
STARTCHAR l
ENCODING 108
SWIDTH 600 0
DWIDTH 6 0
BBX 5 7 1 0
BITMAP
60
20
20
20
20
20
F8
ENDCHAR
STARTCHAR m
ENCODING 109
SWIDTH 600 0
DWIDTH 6 0
BBX 5 5 0 0
BITMAP
F8
A8
A8
A8
A8
ENDCHAR
STARTCHAR n
ENCODING 110
SWIDTH 600 0
DWIDTH 6 0
BBX 4 5 1 0
BITMAP
F0
90
90
90
90
ENDCHAR
STARTCHAR o
ENCODING 111
SWIDTH 600 0
DWIDTH 6 0
BBX 4 5 1 0
BITMAP
60
90
90
90
60
ENDCHAR
STARTCHAR p
ENCODING 112
SWIDTH 600 0
DWIDTH 6 0
BBX 4 7 1 -2
BITMAP
E0
90
90
90
E0
80
80
ENDCHAR
STARTCHAR q
ENCODING 113
SWIDTH 600 0
DWIDTH 6 0
BBX 4 7 1 -2
BITMAP
70
90
90
90
70
10
10
ENDCHAR
STARTCHAR r
ENCODING 114
SWIDTH 600 0
DWIDTH 6 0
BBX 4 5 1 0
BITMAP
F0
80
80
80
80
ENDCHAR
STARTCHAR s
ENCODING 115
SWIDTH 600 0
DWIDTH 6 0
BBX 4 5 1 0
BITMAP
F0
80
60
10
F0
ENDCHAR
STARTCHAR t
ENCODING 116
SWIDTH 600 0
DWIDTH 6 0
BBX 4 6 1 0
BITMAP
40
F0
40
40
40
70
ENDCHAR
STARTCHAR u
ENCODING 117
SWIDTH 600 0
DWIDTH 6 0
BBX 4 5 1 0
BITMAP
90
90
90
90
F0
ENDCHAR
STARTCHAR v
ENCODING 118
SWIDTH 600 0
DWIDTH 6 0
BBX 5 5 0 0
BITMAP
88
50
50
50
20
ENDCHAR
STARTCHAR w
ENCODING 119
SWIDTH 600 0
DWIDTH 6 0
BBX 5 5 0 0
BITMAP
A8
A8
A8
50
50
ENDCHAR
STARTCHAR x
ENCODING 120
SWIDTH 600 0
DWIDTH 6 0
BBX 4 5 1 0
BITMAP
90
60
40
60
90
ENDCHAR
STARTCHAR y
ENCODING 121
SWIDTH 600 0
DWIDTH 6 0
BBX 4 7 1 -2
BITMAP
90
90
60
60
20
40
C0
ENDCHAR
STARTCHAR z
ENCODING 122
SWIDTH 600 0
DWIDTH 6 0
BBX 4 5 1 0
BITMAP
F0
20
20
40
F0
ENDCHAR
STARTCHAR braceleft
ENCODING 123
SWIDTH 600 0
DWIDTH 6 0
BBX 3 9 2 -2
BITMAP
60
40
40
40
80
40
40
40
60
ENDCHAR
STARTCHAR bar
ENCODING 124
SWIDTH 600 0
DWIDTH 6 0
BBX 1 9 3 -2
BITMAP
80
80
80
80
80
80
80
80
80
ENDCHAR
STARTCHAR braceright
ENCODING 125
SWIDTH 600 0
DWIDTH 6 0
BBX 3 9 1 -2
BITMAP
C0
40
40
40
20
40
40
40
C0
ENDCHAR
STARTCHAR asciitilde
ENCODING 126
SWIDTH 600 0
DWIDTH 6 0
BBX 4 2 1 3
BITMAP
C0
30
ENDCHAR
STARTCHAR uni00A0
ENCODING 160
SWIDTH 600 0
DWIDTH 6 0
BBX 1 1 0 0
BITMAP
00
ENDCHAR
STARTCHAR exclamdown
ENCODING 161
SWIDTH 600 0
DWIDTH 6 0
BBX 1 7 2 -2
BITMAP
80
00
80
80
80
80
80
ENDCHAR
STARTCHAR cent
ENCODING 162
SWIDTH 600 0
DWIDTH 6 0
BBX 4 7 1 0
BITMAP
20
70
80
80
80
70
20
ENDCHAR
STARTCHAR sterling
ENCODING 163
SWIDTH 600 0
DWIDTH 6 0
BBX 4 7 1 0
BITMAP
70
40
40
E0
40
40
F0
ENDCHAR
STARTCHAR currency
ENCODING 164
SWIDTH 600 0
DWIDTH 6 0
BBX 4 4 1 2
BITMAP
F0
90
90
F0
ENDCHAR
STARTCHAR yen
ENCODING 165
SWIDTH 600 0
DWIDTH 6 0
BBX 5 7 0 0
BITMAP
88
50
50
70
20
70
20
ENDCHAR
STARTCHAR brokenbar
ENCODING 166
SWIDTH 600 0
DWIDTH 6 0
BBX 1 9 3 -2
BITMAP
80
80
80
00
00
00
80
80
80
ENDCHAR
STARTCHAR section
ENCODING 167
SWIDTH 600 0
DWIDTH 6 0
BBX 4 7 1 0
BITMAP
F0
80
E0
90
60
10
F0
ENDCHAR
STARTCHAR dieresis
ENCODING 168
SWIDTH 600 0
DWIDTH 6 0
BBX 3 1 1 6
BITMAP
A0
ENDCHAR
STARTCHAR copyright
ENCODING 169
SWIDTH 600 0
DWIDTH 6 0
BBX 6 7 0 0
BITMAP
78
84
B4
A4
B4
84
78
ENDCHAR
STARTCHAR ordfeminine
ENCODING 170
SWIDTH 600 0
DWIDTH 6 0
BBX 3 4 1 3
BITMAP
E0
20
E0
E0
ENDCHAR
STARTCHAR guillemotleft
ENCODING 171
SWIDTH 600 0
DWIDTH 6 0
BBX 4 5 1 0
BITMAP
50
A0
A0
A0
50
ENDCHAR
STARTCHAR logicalnot
ENCODING 172
SWIDTH 600 0
DWIDTH 6 0
BBX 4 3 1 1
BITMAP
F0
10
10
ENDCHAR
STARTCHAR uni00AD
ENCODING 173
SWIDTH 600 0
DWIDTH 6 0
BBX 4 1 1 2
BITMAP
F0
ENDCHAR
STARTCHAR registered
ENCODING 174
SWIDTH 600 0
DWIDTH 6 0
BBX 6 7 0 0
BITMAP
78
84
B4
B4
B4
84
78
ENDCHAR
STARTCHAR macron
ENCODING 175
SWIDTH 600 0
DWIDTH 6 0
BBX 4 1 1 7
BITMAP
F0
ENDCHAR
STARTCHAR degree
ENCODING 176
SWIDTH 600 0
DWIDTH 6 0
BBX 4 4 1 3
BITMAP
60
90
90
60
ENDCHAR
STARTCHAR plusminus
ENCODING 177
SWIDTH 600 0
DWIDTH 6 0
BBX 5 6 1 0
BITMAP
20
20
F8
20
20
F8
ENDCHAR
STARTCHAR uni00B2
ENCODING 178
SWIDTH 600 0
DWIDTH 6 0
BBX 3 4 2 3
BITMAP
E0
20
40
E0
ENDCHAR
STARTCHAR uni00B3
ENCODING 179
SWIDTH 600 0
DWIDTH 6 0
BBX 3 4 2 3
BITMAP
E0
60
20
E0
ENDCHAR
STARTCHAR acute
ENCODING 180
SWIDTH 600 0
DWIDTH 6 0
BBX 2 2 2 6
BITMAP
40
80
ENDCHAR
STARTCHAR mu
ENCODING 181
SWIDTH 600 0
DWIDTH 6 0
BBX 4 7 1 -2
BITMAP
90
90
90
90
F0
80
80
ENDCHAR
STARTCHAR paragraph
ENCODING 182
SWIDTH 600 0
DWIDTH 6 0
BBX 4 8 1 -1
BITMAP
F0
D0
D0
D0
50
50
50
50
ENDCHAR
STARTCHAR periodcentered
ENCODING 183
SWIDTH 600 0
DWIDTH 6 0
BBX 1 1 2 3
BITMAP
80
ENDCHAR
STARTCHAR cedilla
ENCODING 184
SWIDTH 600 0
DWIDTH 6 0
BBX 2 1 2 -2
BITMAP
C0
ENDCHAR
STARTCHAR uni00B9
ENCODING 185
SWIDTH 600 0
DWIDTH 6 0
BBX 2 4 2 3
BITMAP
C0
40
40
40
ENDCHAR
STARTCHAR ordmasculine
ENCODING 186
SWIDTH 600 0
DWIDTH 6 0
BBX 3 4 1 3
BITMAP
E0
A0
A0
E0
ENDCHAR
STARTCHAR guillemotright
ENCODING 187
SWIDTH 600 0
DWIDTH 6 0
BBX 4 5 1 0
BITMAP
A0
A0
50
A0
A0
ENDCHAR
STARTCHAR onequarter
ENCODING 188
SWIDTH 600 0
DWIDTH 6 0
BBX 6 7 0 0
BITMAP
C8
50
50
64
2C
3C
44
ENDCHAR
STARTCHAR onehalf
ENCODING 189
SWIDTH 600 0
DWIDTH 6 0
BBX 6 7 0 0
BITMAP
C8
50
50
5C
24
28
5C
ENDCHAR
STARTCHAR threequarters
ENCODING 190
SWIDTH 600 0
DWIDTH 6 0
BBX 6 7 0 0
BITMAP
E8
70
30
E4
2C
3C
44
ENDCHAR
STARTCHAR questiondown
ENCODING 191
SWIDTH 600 0
DWIDTH 6 0
BBX 4 7 1 -2
BITMAP
20
00
20
40
80
80
70
ENDCHAR
STARTCHAR Agrave
ENCODING 192
SWIDTH 600 0
DWIDTH 6 0
BBX 6 10 0 0
BITMAP
20
10
00
30
30
30
48
78
84
84
ENDCHAR
STARTCHAR Aacute
ENCODING 193
SWIDTH 600 0
DWIDTH 6 0
BBX 6 10 0 0
BITMAP
08
10
00
30
30
30
48
78
84
84
ENDCHAR
STARTCHAR Acircumflex
ENCODING 194
SWIDTH 600 0
DWIDTH 6 0
BBX 6 10 0 0
BITMAP
10
28
00
30
30
30
48
78
84
84
ENDCHAR
STARTCHAR Atilde
ENCODING 195
SWIDTH 600 0
DWIDTH 6 0
BBX 6 10 0 0
BITMAP
68
58
00
30
30
30
48
78
84
84
ENDCHAR
STARTCHAR Adieresis
ENCODING 196
SWIDTH 600 0
DWIDTH 6 0
BBX 6 9 0 0
BITMAP
28
00
30
30
30
48
78
84
84
ENDCHAR
STARTCHAR Aring
ENCODING 197
SWIDTH 600 0
DWIDTH 6 0
BBX 6 9 0 0
BITMAP
38
28
38
30
30
48
78
84
84
ENDCHAR
STARTCHAR AE
ENCODING 198
SWIDTH 600 0
DWIDTH 6 0
BBX 5 7 0 0
BITMAP
78
60
A0
B8
E0
A0
B8
ENDCHAR
STARTCHAR Ccedilla
ENCODING 199
SWIDTH 600 0
DWIDTH 6 0
BBX 4 9 1 -2
BITMAP
70
80
80
80
80
80
70
00
60
ENDCHAR
STARTCHAR Egrave
ENCODING 200
SWIDTH 600 0
DWIDTH 6 0
BBX 4 10 1 0
BITMAP
40
20
00
F0
80
80
F0
80
80
F0
ENDCHAR
STARTCHAR Eacute
ENCODING 201
SWIDTH 600 0
DWIDTH 6 0
BBX 4 10 1 0
BITMAP
20
40
00
F0
80
80
F0
80
80
F0
ENDCHAR
STARTCHAR Ecircumflex
ENCODING 202
SWIDTH 600 0
DWIDTH 6 0
BBX 4 10 1 0
BITMAP
20
50
00
F0
80
80
F0
80
80
F0
ENDCHAR
STARTCHAR Edieresis
ENCODING 203
SWIDTH 600 0
DWIDTH 6 0
BBX 4 9 1 0
BITMAP
50
00
F0
80
80
F0
80
80
F0
ENDCHAR
STARTCHAR Igrave
ENCODING 204
SWIDTH 600 0
DWIDTH 6 0
BBX 3 10 1 0
BITMAP
80
40
00
E0
40
40
40
40
40
E0
ENDCHAR
STARTCHAR Iacute
ENCODING 205
SWIDTH 600 0
DWIDTH 6 0
BBX 3 10 1 0
BITMAP
20
40
00
E0
40
40
40
40
40
E0
ENDCHAR
STARTCHAR Icircumflex
ENCODING 206
SWIDTH 600 0
DWIDTH 6 0
BBX 3 10 1 0
BITMAP
40
A0
00
E0
40
40
40
40
40
E0
ENDCHAR
STARTCHAR Idieresis
ENCODING 207
SWIDTH 600 0
DWIDTH 6 0
BBX 3 9 1 0
BITMAP
A0
00
E0
40
40
40
40
40
E0
ENDCHAR
STARTCHAR Eth
ENCODING 208
SWIDTH 600 0
DWIDTH 6 0
BBX 5 7 0 0
BITMAP
70
48
48
E8
48
48
70
ENDCHAR
STARTCHAR Ntilde
ENCODING 209
SWIDTH 600 0
DWIDTH 6 0
BBX 4 10 1 0
BITMAP
D0
B0
00
90
90
D0
D0
B0
90
90
ENDCHAR
STARTCHAR Ograve
ENCODING 210
SWIDTH 600 0
DWIDTH 6 0
BBX 4 10 1 0
BITMAP
40
20
00
60
90
90
90
90
90
60
ENDCHAR
STARTCHAR Oacute
ENCODING 211
SWIDTH 600 0
DWIDTH 6 0
BBX 4 10 1 0
BITMAP
10
20
00
60
90
90
90
90
90
60
ENDCHAR
STARTCHAR Ocircumflex
ENCODING 212
SWIDTH 600 0
DWIDTH 6 0
BBX 4 10 1 0
BITMAP
20
50
00
60
90
90
90
90
90
60
ENDCHAR
STARTCHAR Otilde
ENCODING 213
SWIDTH 600 0
DWIDTH 6 0
BBX 4 10 1 0
BITMAP
D0
B0
00
60
90
90
90
90
90
60
ENDCHAR
STARTCHAR Odieresis
ENCODING 214
SWIDTH 600 0
DWIDTH 6 0
BBX 4 9 1 0
BITMAP
50
00
60
90
90
90
90
90
60
ENDCHAR
STARTCHAR multiply
ENCODING 215
SWIDTH 600 0
DWIDTH 6 0
BBX 3 3 2 2
BITMAP
A0
40
A0
ENDCHAR
STARTCHAR Oslash
ENCODING 216
SWIDTH 600 0
DWIDTH 6 0
BBX 4 7 1 0
BITMAP
70
90
B0
B0
D0
90
E0
ENDCHAR
STARTCHAR Ugrave
ENCODING 217
SWIDTH 600 0
DWIDTH 6 0
BBX 4 10 1 0
BITMAP
40
20
00
90
90
90
90
90
90
60
ENDCHAR
STARTCHAR Uacute
ENCODING 218
SWIDTH 600 0
DWIDTH 6 0
BBX 4 10 1 0
BITMAP
10
20
00
90
90
90
90
90
90
60
ENDCHAR
STARTCHAR Ucircumflex
ENCODING 219
SWIDTH 600 0
DWIDTH 6 0
BBX 4 10 1 0
BITMAP
20
50
00
90
90
90
90
90
90
60
ENDCHAR
STARTCHAR Udieresis
ENCODING 220
SWIDTH 600 0
DWIDTH 6 0
BBX 4 9 1 0
BITMAP
50
00
90
90
90
90
90
90
60
ENDCHAR
STARTCHAR Yacute
ENCODING 221
SWIDTH 600 0
DWIDTH 6 0
BBX 5 10 0 0
BITMAP
10
20
00
88
50
50
20
20
20
20
ENDCHAR
STARTCHAR Thorn
ENCODING 222
SWIDTH 600 0
DWIDTH 6 0
BBX 4 7 1 0
BITMAP
80
E0
90
90
E0
80
80
ENDCHAR
STARTCHAR germandbls
ENCODING 223
SWIDTH 600 0
DWIDTH 6 0
BBX 4 7 1 0
BITMAP
70
90
A0
A0
90
90
B0
ENDCHAR
STARTCHAR agrave
ENCODING 224
SWIDTH 600 0
DWIDTH 6 0
BBX 4 8 1 0
BITMAP
40
20
00
F0
10
F0
90
F0
ENDCHAR
STARTCHAR aacute
ENCODING 225
SWIDTH 600 0
DWIDTH 6 0
BBX 4 8 1 0
BITMAP
10
20
00
F0
10
F0
90
F0
ENDCHAR
STARTCHAR acircumflex
ENCODING 226
SWIDTH 600 0
DWIDTH 6 0
BBX 4 8 1 0
BITMAP
20
50
00
F0
10
F0
90
F0
ENDCHAR
STARTCHAR atilde
ENCODING 227
SWIDTH 600 0
DWIDTH 6 0
BBX 4 8 1 0
BITMAP
D0
B0
00
F0
10
F0
90
F0
ENDCHAR
STARTCHAR adieresis
ENCODING 228
SWIDTH 600 0
DWIDTH 6 0
BBX 4 7 1 0
BITMAP
50
00
F0
10
F0
90
F0
ENDCHAR
STARTCHAR aring
ENCODING 229
SWIDTH 600 0
DWIDTH 6 0
BBX 4 9 1 0
BITMAP
70
50
70
00
F0
10
F0
90
F0
ENDCHAR
STARTCHAR ae
ENCODING 230
SWIDTH 600 0
DWIDTH 6 0
BBX 6 5 0 0
BITMAP
D8
24
FC
A0
DC
ENDCHAR
STARTCHAR ccedilla
ENCODING 231
SWIDTH 600 0
DWIDTH 6 0
BBX 4 7 1 -2
BITMAP
70
80
80
80
70
00
60
ENDCHAR
STARTCHAR egrave
ENCODING 232
SWIDTH 600 0
DWIDTH 6 0
BBX 4 8 1 0
BITMAP
40
20
00
60
90
F0
80
70
ENDCHAR
STARTCHAR eacute
ENCODING 233
SWIDTH 600 0
DWIDTH 6 0
BBX 4 8 1 0
BITMAP
20
40
00
60
90
F0
80
70
ENDCHAR
STARTCHAR ecircumflex
ENCODING 234
SWIDTH 600 0
DWIDTH 6 0
BBX 4 8 1 0
BITMAP
20
50
00
60
90
F0
80
70
ENDCHAR
STARTCHAR edieresis
ENCODING 235
SWIDTH 600 0
DWIDTH 6 0
BBX 4 7 1 0
BITMAP
50
00
60
90
F0
80
70
ENDCHAR
STARTCHAR igrave
ENCODING 236
SWIDTH 600 0
DWIDTH 6 0
BBX 5 8 1 0
BITMAP
40
20
00
60
20
20
20
F8
ENDCHAR
STARTCHAR iacute
ENCODING 237
SWIDTH 600 0
DWIDTH 6 0
BBX 5 8 1 0
BITMAP
10
20
00
60
20
20
20
F8
ENDCHAR
STARTCHAR icircumflex
ENCODING 238
SWIDTH 600 0
DWIDTH 6 0
BBX 5 8 1 0
BITMAP
20
50
00
60
20
20
20
F8
ENDCHAR
STARTCHAR idieresis
ENCODING 239
SWIDTH 600 0
DWIDTH 6 0
BBX 5 7 1 0
BITMAP
50
00
60
20
20
20
F8
ENDCHAR
STARTCHAR eth
ENCODING 240
SWIDTH 600 0
DWIDTH 6 0
BBX 4 7 1 0
BITMAP
70
50
10
F0
90
90
60
ENDCHAR
STARTCHAR ntilde
ENCODING 241
SWIDTH 600 0
DWIDTH 6 0
BBX 4 8 1 0
BITMAP
D0
B0
00
F0
90
90
90
90
ENDCHAR
STARTCHAR ograve
ENCODING 242
SWIDTH 600 0
DWIDTH 6 0
BBX 4 8 1 0
BITMAP
40
20
00
60
90
90
90
60
ENDCHAR
STARTCHAR oacute
ENCODING 243
SWIDTH 600 0
DWIDTH 6 0
BBX 4 8 1 0
BITMAP
10
20
00
60
90
90
90
60
ENDCHAR
STARTCHAR ocircumflex
ENCODING 244
SWIDTH 600 0
DWIDTH 6 0
BBX 4 8 1 0
BITMAP
20
50
00
60
90
90
90
60
ENDCHAR
STARTCHAR otilde
ENCODING 245
SWIDTH 600 0
DWIDTH 6 0
BBX 4 8 1 0
BITMAP
D0
B0
00
60
90
90
90
60
ENDCHAR
STARTCHAR odieresis
ENCODING 246
SWIDTH 600 0
DWIDTH 6 0
BBX 4 7 1 0
BITMAP
50
00
60
90
90
90
60
ENDCHAR
STARTCHAR divide
ENCODING 247
SWIDTH 600 0
DWIDTH 6 0
BBX 5 5 1 1
BITMAP
20
00
F8
00
20
ENDCHAR
STARTCHAR oslash
ENCODING 248
SWIDTH 600 0
DWIDTH 6 0
BBX 4 5 1 0
BITMAP
70
B0
D0
D0
E0
ENDCHAR
STARTCHAR ugrave
ENCODING 249
SWIDTH 600 0
DWIDTH 6 0
BBX 4 8 1 0
BITMAP
40
20
00
90
90
90
90
F0
ENDCHAR
STARTCHAR uacute
ENCODING 250
SWIDTH 600 0
DWIDTH 6 0
BBX 4 8 1 0
BITMAP
10
20
00
90
90
90
90
F0
ENDCHAR
STARTCHAR ucircumflex
ENCODING 251
SWIDTH 600 0
DWIDTH 6 0
BBX 4 8 1 0
BITMAP
20
50
00
90
90
90
90
F0
ENDCHAR
STARTCHAR udieresis
ENCODING 252
SWIDTH 600 0
DWIDTH 6 0
BBX 4 7 1 0
BITMAP
50
00
90
90
90
90
F0
ENDCHAR
STARTCHAR yacute
ENCODING 253
SWIDTH 600 0
DWIDTH 6 0
BBX 4 10 1 -2
BITMAP
10
20
00
90
90
60
60
20
40
C0
ENDCHAR
STARTCHAR thorn
ENCODING 254
SWIDTH 600 0
DWIDTH 6 0
BBX 4 9 1 -2
BITMAP
80
80
E0
90
90
90
E0
80
80
ENDCHAR
STARTCHAR ydieresis
ENCODING 255
SWIDTH 600 0
DWIDTH 6 0
BBX 4 9 1 -2
BITMAP
50
00
90
90
60
60
20
40
C0
ENDCHAR
STARTCHAR .notdef
ENCODING -1
SWIDTH 600 0
DWIDTH 6 0
BBX 4 7 1 0
BITMAP
F0
90
90
90
90
90
F0
ENDCHAR
STARTCHAR Amacron
ENCODING -1
SWIDTH 600 0
DWIDTH 6 0
BBX 6 9 0 0
BITMAP
78
00
30
30
30
48
78
84
84
ENDCHAR
STARTCHAR amacron
ENCODING -1
SWIDTH 600 0
DWIDTH 6 0
BBX 4 7 1 0
BITMAP
F0
00
F0
10
F0
90
F0
ENDCHAR
STARTCHAR Abreve
ENCODING -1
SWIDTH 600 0
DWIDTH 6 0
BBX 6 10 0 0
BITMAP
48
30
00
30
30
30
48
78
84
84
ENDCHAR
STARTCHAR abreve
ENCODING -1
SWIDTH 600 0
DWIDTH 6 0
BBX 4 8 1 0
BITMAP
90
60
00
F0
10
F0
90
F0
ENDCHAR
STARTCHAR Aogonek
ENCODING -1
SWIDTH 600 0
DWIDTH 6 0
BBX 6 9 0 -2
BITMAP
30
30
30
48
78
84
84
08
0C
ENDCHAR
STARTCHAR aogonek
ENCODING -1
SWIDTH 600 0
DWIDTH 6 0
BBX 4 7 1 -2
BITMAP
F0
10
F0
90
F0
20
30
ENDCHAR
STARTCHAR Cacute
ENCODING -1
SWIDTH 600 0
DWIDTH 6 0
BBX 4 10 1 0
BITMAP
10
20
00
70
80
80
80
80
80
70
ENDCHAR
STARTCHAR cacute
ENCODING -1
SWIDTH 600 0
DWIDTH 6 0
BBX 4 8 1 0
BITMAP
10
20
00
70
80
80
80
70
ENDCHAR
STARTCHAR Ccircumflex
ENCODING -1
SWIDTH 600 0
DWIDTH 6 0
BBX 4 10 1 0
BITMAP
20
50
00
70
80
80
80
80
80
70
ENDCHAR
STARTCHAR ccircumflex
ENCODING -1
SWIDTH 600 0
DWIDTH 6 0
BBX 4 8 1 0
BITMAP
20
50
00
70
80
80
80
70
ENDCHAR
STARTCHAR Cdotaccent
ENCODING -1
SWIDTH 600 0
DWIDTH 6 0
BBX 4 9 1 0
BITMAP
20
00
70
80
80
80
80
80
70
ENDCHAR
STARTCHAR cdotaccent
ENCODING -1
SWIDTH 600 0
DWIDTH 6 0
BBX 4 7 1 0
BITMAP
20
00
70
80
80
80
70
ENDCHAR
STARTCHAR Ccaron
ENCODING -1
SWIDTH 600 0
DWIDTH 6 0
BBX 4 10 1 0
BITMAP
50
20
00
70
80
80
80
80
80
70
ENDCHAR
STARTCHAR ccaron
ENCODING -1
SWIDTH 600 0
DWIDTH 6 0
BBX 4 8 1 0
BITMAP
50
20
00
70
80
80
80
70
ENDCHAR
STARTCHAR Dcaron
ENCODING -1
SWIDTH 600 0
DWIDTH 6 0
BBX 4 10 1 0
BITMAP
50
20
00
E0
90
90
90
90
90
E0
ENDCHAR
STARTCHAR dcaron
ENCODING -1
SWIDTH 600 0
DWIDTH 6 0
BBX 6 7 1 0
BITMAP
14
14
70
90
90
90
70
ENDCHAR
STARTCHAR Dcroat
ENCODING -1
SWIDTH 600 0
DWIDTH 6 0
BBX 5 7 0 0
BITMAP
70
48
48
E8
48
48
70
ENDCHAR
STARTCHAR dcroat
ENCODING -1
SWIDTH 600 0
DWIDTH 6 0
BBX 5 7 1 0
BITMAP
10
38
10
70
90
90
F0
ENDCHAR
STARTCHAR Emacron
ENCODING -1
SWIDTH 600 0
DWIDTH 6 0
BBX 4 9 1 0
BITMAP
F0
00
F0
80
80
F0
80
80
F0
ENDCHAR
STARTCHAR emacron
ENCODING -1
SWIDTH 600 0
DWIDTH 6 0
BBX 4 7 1 0
BITMAP
F0
00
60
90
F0
80
70
ENDCHAR
STARTCHAR Ebreve
ENCODING -1
SWIDTH 600 0
DWIDTH 6 0
BBX 4 10 1 0
BITMAP
90
60
00
F0
80
80
F0
80
80
F0
ENDCHAR
STARTCHAR ebreve
ENCODING -1
SWIDTH 600 0
DWIDTH 6 0
BBX 4 8 1 0
BITMAP
90
60
00
60
90
F0
80
70
ENDCHAR
STARTCHAR Edotaccent
ENCODING -1
SWIDTH 600 0
DWIDTH 6 0
BBX 4 9 1 0
BITMAP
20
00
F0
80
80
F0
80
80
F0
ENDCHAR
STARTCHAR edotaccent
ENCODING -1
SWIDTH 600 0
DWIDTH 6 0
BBX 4 7 1 0
BITMAP
20
00
60
90
F0
80
70
ENDCHAR
STARTCHAR Eogonek
ENCODING -1
SWIDTH 600 0
DWIDTH 6 0
BBX 4 9 1 -2
BITMAP
F0
80
80
F0
80
80
F0
20
30
ENDCHAR
STARTCHAR eogonek
ENCODING -1
SWIDTH 600 0
DWIDTH 6 0
BBX 4 7 1 -2
BITMAP
60
90
F0
80
70
20
30
ENDCHAR
STARTCHAR Ecaron
ENCODING -1
SWIDTH 600 0
DWIDTH 6 0
BBX 4 10 1 0
BITMAP
50
20
00
F0
80
80
F0
80
80
F0
ENDCHAR
STARTCHAR ecaron
ENCODING -1
SWIDTH 600 0
DWIDTH 6 0
BBX 4 8 1 0
BITMAP
50
20
00
60
90
F0
80
70
ENDCHAR
STARTCHAR Gcircumflex
ENCODING -1
SWIDTH 600 0
DWIDTH 6 0
BBX 4 10 1 0
BITMAP
20
50
00
70
80
80
B0
90
90
70
ENDCHAR
STARTCHAR gcircumflex
ENCODING -1
SWIDTH 600 0
DWIDTH 6 0
BBX 5 10 1 -2
BITMAP
20
50
00
F8
90
F0
80
F8
88
F0
ENDCHAR
STARTCHAR Gbreve
ENCODING -1
SWIDTH 600 0
DWIDTH 6 0
BBX 4 10 1 0
BITMAP
90
60
00
70
80
80
B0
90
90
70
ENDCHAR
STARTCHAR gbreve
ENCODING -1
SWIDTH 600 0
DWIDTH 6 0
BBX 5 10 1 -2
BITMAP
48
30
00
F8
90
F0
80
F8
88
F0
ENDCHAR
STARTCHAR Gdotaccent
ENCODING -1
SWIDTH 600 0
DWIDTH 6 0
BBX 4 9 1 0
BITMAP
20
00
70
80
80
B0
90
90
70
ENDCHAR
STARTCHAR gdotaccent
ENCODING -1
SWIDTH 600 0
DWIDTH 6 0
BBX 5 9 1 -2
BITMAP
20
00
F8
90
F0
80
F8
88
F0
ENDCHAR
STARTCHAR uni0122
ENCODING -1
SWIDTH 600 0
DWIDTH 6 0
BBX 4 9 1 -2
BITMAP
70
80
80
B0
90
90
70
20
20
ENDCHAR
STARTCHAR uni0123
ENCODING -1
SWIDTH 600 0
DWIDTH 6 0
BBX 5 10 1 -2
BITMAP
20
20
00
F8
90
F0
80
F8
88
F0
ENDCHAR
STARTCHAR Hcircumflex
ENCODING -1
SWIDTH 600 0
DWIDTH 6 0
BBX 4 10 1 0
BITMAP
20
50
00
90
90
90
F0
90
90
90
ENDCHAR
STARTCHAR hcircumflex
ENCODING -1
SWIDTH 600 0
DWIDTH 6 0
BBX 4 10 1 0
BITMAP
20
50
00
80
80
E0
90
90
90
90
ENDCHAR
STARTCHAR Hbar
ENCODING -1
SWIDTH 600 0
DWIDTH 6 0
BBX 6 7 0 0
BITMAP
48
FC
48
78
48
48
48
ENDCHAR
STARTCHAR hbar
ENCODING -1
SWIDTH 600 0
DWIDTH 6 0
BBX 5 7 0 0
BITMAP
40
F0
40
78
48
48
48
ENDCHAR
STARTCHAR Itilde
ENCODING -1
SWIDTH 600 0
DWIDTH 6 0
BBX 4 10 1 0
BITMAP
D0
B0
00
E0
40
40
40
40
40
E0
ENDCHAR
STARTCHAR itilde
ENCODING -1
SWIDTH 600 0
DWIDTH 6 0
BBX 5 8 1 0
BITMAP
68
58
00
60
20
20
20
F8
ENDCHAR
STARTCHAR Imacron
ENCODING -1
SWIDTH 600 0
DWIDTH 6 0
BBX 4 9 1 0
BITMAP
F0
00
E0
40
40
40
40
40
E0
ENDCHAR
STARTCHAR imacron
ENCODING -1
SWIDTH 600 0
DWIDTH 6 0
BBX 5 7 1 0
BITMAP
78
00
60
20
20
20
F8
ENDCHAR
STARTCHAR Ibreve
ENCODING -1
SWIDTH 600 0
DWIDTH 6 0
BBX 4 10 1 0
BITMAP
90
60
00
E0
40
40
40
40
40
E0
ENDCHAR
STARTCHAR ibreve
ENCODING -1
SWIDTH 600 0
DWIDTH 6 0
BBX 5 8 1 0
BITMAP
48
30
00
60
20
20
20
F8
ENDCHAR
STARTCHAR Iogonek
ENCODING -1
SWIDTH 600 0
DWIDTH 6 0
BBX 3 9 1 -2
BITMAP
E0
40
40
40
40
40
E0
40
60
ENDCHAR
STARTCHAR iogonek
ENCODING -1
SWIDTH 600 0
DWIDTH 6 0
BBX 5 9 1 -2
BITMAP
20
00
60
20
20
20
F8
20
30
ENDCHAR
STARTCHAR Idotaccent
ENCODING -1
SWIDTH 600 0
DWIDTH 6 0
BBX 3 9 1 0
BITMAP
40
00
E0
40
40
40
40
40
E0
ENDCHAR
STARTCHAR dotlessi
ENCODING -1
SWIDTH 600 0
DWIDTH 6 0
BBX 5 5 1 0
BITMAP
60
20
20
20
F8
ENDCHAR
STARTCHAR IJ
ENCODING -1
SWIDTH 600 0
DWIDTH 6 0
BBX 4 7 1 0
BITMAP
90
90
90
90
90
90
B0
ENDCHAR
STARTCHAR ij
ENCODING -1
SWIDTH 600 0
DWIDTH 6 0
BBX 4 9 1 -2
BITMAP
90
00
B0
90
90
90
90
10
70
ENDCHAR
STARTCHAR Jcircumflex
ENCODING -1
SWIDTH 600 0
DWIDTH 6 0
BBX 4 10 1 0
BITMAP
20
50
00
20
20
20
20
20
20
C0
ENDCHAR
STARTCHAR jcircumflex
ENCODING -1
SWIDTH 600 0
DWIDTH 6 0
BBX 3 10 2 -2
BITMAP
40
A0
00
E0
20
20
20
20
20
E0
ENDCHAR
STARTCHAR uni0136
ENCODING -1
SWIDTH 600 0
DWIDTH 6 0
BBX 4 9 1 -2
BITMAP
90
A0
A0
C0
A0
A0
90
20
20
ENDCHAR
STARTCHAR uni0137
ENCODING -1
SWIDTH 600 0
DWIDTH 6 0
BBX 5 9 1 -2
BITMAP
80
80
90
A0
E0
90
88
20
20
ENDCHAR
STARTCHAR kgreenlandic
ENCODING -1
SWIDTH 600 0
DWIDTH 6 0
BBX 5 5 1 0
BITMAP
90
A0
E0
90
88
ENDCHAR
STARTCHAR Lacute
ENCODING -1
SWIDTH 600 0
DWIDTH 6 0
BBX 4 10 1 0
BITMAP
40
80
00
80
80
80
80
80
80
F0
ENDCHAR
STARTCHAR lacute
ENCODING -1
SWIDTH 600 0
DWIDTH 6 0
BBX 5 10 1 0
BITMAP
10
20
00
60
20
20
20
20
20
F8
ENDCHAR
STARTCHAR uni013B
ENCODING -1
SWIDTH 600 0
DWIDTH 6 0
BBX 4 9 1 -2
BITMAP
80
80
80
80
80
80
F0
20
20
ENDCHAR
STARTCHAR uni013C
ENCODING -1
SWIDTH 600 0
DWIDTH 6 0
BBX 5 9 1 -2
BITMAP
60
20
20
20
20
20
F8
20
20
ENDCHAR
STARTCHAR Lcaron
ENCODING -1
SWIDTH 600 0
DWIDTH 6 0
BBX 4 7 1 0
BITMAP
90
90
80
80
80
80
F0
ENDCHAR
STARTCHAR lcaron
ENCODING -1
SWIDTH 600 0
DWIDTH 6 0
BBX 5 7 1 0
BITMAP
68
28
20
20
20
20
F8
ENDCHAR
STARTCHAR Ldot
ENCODING -1
SWIDTH 600 0
DWIDTH 6 0
BBX 4 7 1 0
BITMAP
80
80
80
90
80
80
F0
ENDCHAR
STARTCHAR ldot
ENCODING -1
SWIDTH 600 0
DWIDTH 6 0
BBX 5 7 1 0
BITMAP
60
20
20
28
20
20
F8
ENDCHAR
STARTCHAR Lslash
ENCODING -1
SWIDTH 600 0
DWIDTH 6 0
BBX 5 7 0 0
BITMAP
40
40
50
60
C0
40
78
ENDCHAR
STARTCHAR lslash
ENCODING -1
SWIDTH 600 0
DWIDTH 6 0
BBX 5 7 1 0
BITMAP
60
20
20
30
60
20
F8
ENDCHAR
STARTCHAR Nacute
ENCODING -1
SWIDTH 600 0
DWIDTH 6 0
BBX 4 10 1 0
BITMAP
10
20
00
90
90
D0
D0
B0
90
90
ENDCHAR
STARTCHAR nacute
ENCODING -1
SWIDTH 600 0
DWIDTH 6 0
BBX 4 8 1 0
BITMAP
10
20
00
F0
90
90
90
90
ENDCHAR
STARTCHAR uni0145
ENCODING -1
SWIDTH 600 0
DWIDTH 6 0
BBX 4 9 1 -2
BITMAP
90
90
D0
D0
B0
90
90
40
40
ENDCHAR
STARTCHAR uni0146
ENCODING -1
SWIDTH 600 0
DWIDTH 6 0
BBX 4 7 1 -2
BITMAP
F0
90
90
90
90
20
20
ENDCHAR
STARTCHAR Ncaron
ENCODING -1
SWIDTH 600 0
DWIDTH 6 0
BBX 4 10 1 0
BITMAP
50
20
00
90
90
D0
D0
B0
90
90
ENDCHAR
STARTCHAR ncaron
ENCODING -1
SWIDTH 600 0
DWIDTH 6 0
BBX 4 8 1 0
BITMAP
50
20
00
F0
90
90
90
90
ENDCHAR
STARTCHAR napostrophe
ENCODING -1
SWIDTH 600 0
DWIDTH 6 0
BBX 5 7 0 0
BITMAP
40
80
78
48
48
48
48
ENDCHAR
STARTCHAR Eng
ENCODING -1
SWIDTH 600 0
DWIDTH 6 0
BBX 4 9 1 -2
BITMAP
90
90
D0
B0
B0
90
90
10
30
ENDCHAR
STARTCHAR eng
ENCODING -1
SWIDTH 600 0
DWIDTH 6 0
BBX 4 7 1 -2
BITMAP
F0
90
90
90
90
10
30
ENDCHAR
STARTCHAR Omacron
ENCODING -1
SWIDTH 600 0
DWIDTH 6 0
BBX 4 9 1 0
BITMAP
F0
00
60
90
90
90
90
90
60
ENDCHAR
STARTCHAR omacron
ENCODING -1
SWIDTH 600 0
DWIDTH 6 0
BBX 4 7 1 0
BITMAP
F0
00
60
90
90
90
60
ENDCHAR
STARTCHAR Obreve
ENCODING -1
SWIDTH 600 0
DWIDTH 6 0
BBX 4 10 1 0
BITMAP
90
60
00
60
90
90
90
90
90
60
ENDCHAR
STARTCHAR obreve
ENCODING -1
SWIDTH 600 0
DWIDTH 6 0
BBX 4 8 1 0
BITMAP
90
60
00
60
90
90
90
60
ENDCHAR
STARTCHAR Ohungarumlaut
ENCODING -1
SWIDTH 600 0
DWIDTH 6 0
BBX 5 10 1 0
BITMAP
28
50
00
60
90
90
90
90
90
60
ENDCHAR
STARTCHAR ohungarumlaut
ENCODING -1
SWIDTH 600 0
DWIDTH 6 0
BBX 5 8 1 0
BITMAP
28
50
00
60
90
90
90
60
ENDCHAR
STARTCHAR OE
ENCODING -1
SWIDTH 600 0
DWIDTH 6 0
BBX 5 7 0 0
BITMAP
78
A0
A0
B8
A0
A0
78
ENDCHAR
STARTCHAR oe
ENCODING -1
SWIDTH 600 0
DWIDTH 6 0
BBX 6 5 0 0
BITMAP
D8
A4
BC
A0
DC
ENDCHAR
STARTCHAR Racute
ENCODING -1
SWIDTH 600 0
DWIDTH 6 0
BBX 5 10 1 0
BITMAP
10
20
00
E0
90
90
E0
A0
90
88
ENDCHAR
STARTCHAR racute
ENCODING -1
SWIDTH 600 0
DWIDTH 6 0
BBX 4 8 1 0
BITMAP
20
40
00
F0
80
80
80
80
ENDCHAR
STARTCHAR uni0156
ENCODING -1
SWIDTH 600 0
DWIDTH 6 0
BBX 5 9 1 -2
BITMAP
E0
90
90
E0
A0
90
88
20
20
ENDCHAR
STARTCHAR uni0157
ENCODING -1
SWIDTH 600 0
DWIDTH 6 0
BBX 4 7 1 -2
BITMAP
F0
80
80
80
80
40
40
ENDCHAR
STARTCHAR Rcaron
ENCODING -1
SWIDTH 600 0
DWIDTH 6 0
BBX 5 10 1 0
BITMAP
50
20
00
E0
90
90
E0
A0
90
88
ENDCHAR
STARTCHAR rcaron
ENCODING -1
SWIDTH 600 0
DWIDTH 6 0
BBX 4 8 1 0
BITMAP
50
20
00
F0
80
80
80
80
ENDCHAR
STARTCHAR Sacute
ENCODING -1
SWIDTH 600 0
DWIDTH 6 0
BBX 4 10 1 0
BITMAP
10
20
00
70
80
80
60
10
10
E0
ENDCHAR
STARTCHAR sacute
ENCODING -1
SWIDTH 600 0
DWIDTH 6 0
BBX 4 8 1 0
BITMAP
10
20
00
F0
80
60
10
F0
ENDCHAR
STARTCHAR Scircumflex
ENCODING -1
SWIDTH 600 0
DWIDTH 6 0
BBX 4 10 1 0
BITMAP
20
50
00
70
80
80
60
10
10
E0
ENDCHAR
STARTCHAR scircumflex
ENCODING -1
SWIDTH 600 0
DWIDTH 6 0
BBX 4 8 1 0
BITMAP
20
50
00
F0
80
60
10
F0
ENDCHAR
STARTCHAR Scedilla
ENCODING -1
SWIDTH 600 0
DWIDTH 6 0
BBX 4 9 1 -2
BITMAP
70
80
80
60
10
10
E0
00
60
ENDCHAR
STARTCHAR scedilla
ENCODING -1
SWIDTH 600 0
DWIDTH 6 0
BBX 4 7 1 -2
BITMAP
F0
80
60
10
F0
00
60
ENDCHAR
STARTCHAR Scaron
ENCODING -1
SWIDTH 600 0
DWIDTH 6 0
BBX 4 10 1 0
BITMAP
50
20
00
70
80
80
60
10
10
E0
ENDCHAR
STARTCHAR scaron
ENCODING -1
SWIDTH 600 0
DWIDTH 6 0
BBX 4 8 1 0
BITMAP
50
20
00
F0
80
60
10
F0
ENDCHAR
STARTCHAR uni021A
ENCODING -1
SWIDTH 600 0
DWIDTH 6 0
BBX 5 9 0 -2
BITMAP
F8
20
20
20
20
20
20
20
20
ENDCHAR
STARTCHAR uni021B
ENCODING -1
SWIDTH 600 0
DWIDTH 6 0
BBX 4 8 1 -2
BITMAP
40
F0
40
40
40
70
20
20
ENDCHAR
STARTCHAR Tcaron
ENCODING -1
SWIDTH 600 0
DWIDTH 6 0
BBX 5 10 0 0
BITMAP
50
20
00
F8
20
20
20
20
20
20
ENDCHAR
STARTCHAR tcaron
ENCODING -1
SWIDTH 600 0
DWIDTH 6 0
BBX 4 7 1 0
BITMAP
10
50
F0
40
40
40
70
ENDCHAR
STARTCHAR Tbar
ENCODING -1
SWIDTH 600 0
DWIDTH 6 0
BBX 5 7 0 0
BITMAP
F8
20
20
70
20
20
20
ENDCHAR
STARTCHAR tbar
ENCODING -1
SWIDTH 600 0
DWIDTH 6 0
BBX 4 6 1 0
BITMAP
40
F0
40
E0
40
70
ENDCHAR
STARTCHAR Utilde
ENCODING -1
SWIDTH 600 0
DWIDTH 6 0
BBX 4 10 1 0
BITMAP
D0
B0
00
90
90
90
90
90
90
60
ENDCHAR
STARTCHAR utilde
ENCODING -1
SWIDTH 600 0
DWIDTH 6 0
BBX 4 8 1 0
BITMAP
D0
B0
00
90
90
90
90
F0
ENDCHAR
STARTCHAR Umacron
ENCODING -1
SWIDTH 600 0
DWIDTH 6 0
BBX 4 9 1 0
BITMAP
F0
00
90
90
90
90
90
90
60
ENDCHAR
STARTCHAR umacron
ENCODING -1
SWIDTH 600 0
DWIDTH 6 0
BBX 4 7 1 0
BITMAP
F0
00
90
90
90
90
F0
ENDCHAR
STARTCHAR Ubreve
ENCODING -1
SWIDTH 600 0
DWIDTH 6 0
BBX 4 10 1 0
BITMAP
90
60
00
90
90
90
90
90
90
60
ENDCHAR
STARTCHAR ubreve
ENCODING -1
SWIDTH 600 0
DWIDTH 6 0
BBX 4 8 1 0
BITMAP
90
60
00
90
90
90
90
F0
ENDCHAR
STARTCHAR Uring
ENCODING -1
SWIDTH 600 0
DWIDTH 6 0
BBX 4 11 1 0
BITMAP
70
50
70
00
90
90
90
90
90
90
60
ENDCHAR
STARTCHAR uring
ENCODING -1
SWIDTH 600 0
DWIDTH 6 0
BBX 4 9 1 0
BITMAP
70
50
70
00
90
90
90
90
F0
ENDCHAR
STARTCHAR Uhungarumlaut
ENCODING -1
SWIDTH 600 0
DWIDTH 6 0
BBX 5 10 1 0
BITMAP
28
50
00
90
90
90
90
90
90
60
ENDCHAR
STARTCHAR uhungarumlaut
ENCODING -1
SWIDTH 600 0
DWIDTH 6 0
BBX 5 8 1 0
BITMAP
28
50
00
90
90
90
90
F0
ENDCHAR
STARTCHAR Uogonek
ENCODING -1
SWIDTH 600 0
DWIDTH 6 0
BBX 4 9 1 -2
BITMAP
90
90
90
90
90
90
60
40
60
ENDCHAR
STARTCHAR uogonek
ENCODING -1
SWIDTH 600 0
DWIDTH 6 0
BBX 4 7 1 -2
BITMAP
90
90
90
90
F0
20
30
ENDCHAR
STARTCHAR Wcircumflex
ENCODING -1
SWIDTH 600 0
DWIDTH 6 0
BBX 5 10 0 0
BITMAP
20
50
00
88
88
A8
A8
A8
50
50
ENDCHAR
STARTCHAR wcircumflex
ENCODING -1
SWIDTH 600 0
DWIDTH 6 0
BBX 5 8 0 0
BITMAP
20
50
00
A8
A8
A8
50
50
ENDCHAR
STARTCHAR Ycircumflex
ENCODING -1
SWIDTH 600 0
DWIDTH 6 0
BBX 5 10 0 0
BITMAP
20
50
00
88
50
50
20
20
20
20
ENDCHAR
STARTCHAR ycircumflex
ENCODING -1
SWIDTH 600 0
DWIDTH 6 0
BBX 4 10 1 -2
BITMAP
20
50
00
90
90
60
60
20
40
C0
ENDCHAR
STARTCHAR Ydieresis
ENCODING -1
SWIDTH 600 0
DWIDTH 6 0
BBX 5 9 0 0
BITMAP
50
00
88
50
50
20
20
20
20
ENDCHAR
STARTCHAR Zacute
ENCODING -1
SWIDTH 600 0
DWIDTH 6 0
BBX 4 10 1 0
BITMAP
10
20
00
F0
10
20
40
40
80
F0
ENDCHAR
STARTCHAR zacute
ENCODING -1
SWIDTH 600 0
DWIDTH 6 0
BBX 4 8 1 0
BITMAP
10
20
00
F0
20
20
40
F0
ENDCHAR
STARTCHAR Zdotaccent
ENCODING -1
SWIDTH 600 0
DWIDTH 6 0
BBX 4 9 1 0
BITMAP
20
00
F0
10
20
40
40
80
F0
ENDCHAR
STARTCHAR zdotaccent
ENCODING -1
SWIDTH 600 0
DWIDTH 6 0
BBX 4 7 1 0
BITMAP
20
00
F0
20
20
40
F0
ENDCHAR
STARTCHAR Zcaron
ENCODING -1
SWIDTH 600 0
DWIDTH 6 0
BBX 4 10 1 0
BITMAP
50
20
00
F0
10
20
40
40
80
F0
ENDCHAR
STARTCHAR zcaron
ENCODING -1
SWIDTH 600 0
DWIDTH 6 0
BBX 4 8 1 0
BITMAP
50
20
00
F0
20
20
40
F0
ENDCHAR
STARTCHAR longs
ENCODING -1
SWIDTH 600 0
DWIDTH 6 0
BBX 3 7 2 0
BITMAP
E0
80
80
80
80
80
80
ENDCHAR
STARTCHAR florin
ENCODING -1
SWIDTH 600 0
DWIDTH 6 0
BBX 4 9 1 -2
BITMAP
30
20
70
20
20
20
20
20
E0
ENDCHAR
STARTCHAR Aringacute
ENCODING -1
SWIDTH 600 0
DWIDTH 6 0
BBX 6 11 0 0
BITMAP
08
10
38
28
38
30
30
48
78
84
84
ENDCHAR
STARTCHAR aringacute
ENCODING -1
SWIDTH 600 0
DWIDTH 6 0
BBX 4 11 1 0
BITMAP
10
20
70
50
70
00
F0
10
F0
90
F0
ENDCHAR
STARTCHAR AEacute
ENCODING -1
SWIDTH 600 0
DWIDTH 6 0
BBX 5 10 0 0
BITMAP
08
10
00
78
60
A0
B8
E0
A0
B8
ENDCHAR
STARTCHAR aeacute
ENCODING -1
SWIDTH 600 0
DWIDTH 6 0
BBX 6 8 0 0
BITMAP
08
10
00
D8
24
FC
A0
DC
ENDCHAR
STARTCHAR Oslashacute
ENCODING -1
SWIDTH 600 0
DWIDTH 6 0
BBX 4 10 1 0
BITMAP
10
20
00
70
90
B0
B0
D0
90
E0
ENDCHAR
STARTCHAR oslashacute
ENCODING -1
SWIDTH 600 0
DWIDTH 6 0
BBX 4 8 1 0
BITMAP
10
20
00
70
B0
D0
D0
E0
ENDCHAR
STARTCHAR uni0218
ENCODING -1
SWIDTH 600 0
DWIDTH 6 0
BBX 4 9 1 -2
BITMAP
70
80
80
60
10
10
E0
20
20
ENDCHAR
STARTCHAR uni0219
ENCODING -1
SWIDTH 600 0
DWIDTH 6 0
BBX 4 7 1 -2
BITMAP
F0
80
60
10
F0
20
20
ENDCHAR
STARTCHAR circumflex
ENCODING -1
SWIDTH 600 0
DWIDTH 6 0
BBX 3 2 2 6
BITMAP
40
A0
ENDCHAR
STARTCHAR caron
ENCODING -1
SWIDTH 600 0
DWIDTH 6 0
BBX 3 2 2 6
BITMAP
A0
40
ENDCHAR
STARTCHAR uni02C9
ENCODING -1
SWIDTH 600 0
DWIDTH 6 0
BBX 4 1 1 6
BITMAP
F0
ENDCHAR
STARTCHAR breve
ENCODING -1
SWIDTH 600 0
DWIDTH 6 0
BBX 4 2 1 6
BITMAP
90
60
ENDCHAR
STARTCHAR dotaccent
ENCODING -1
SWIDTH 600 0
DWIDTH 6 0
BBX 1 1 3 6
BITMAP
80
ENDCHAR
STARTCHAR ring
ENCODING -1
SWIDTH 600 0
DWIDTH 6 0
BBX 3 3 1 6
BITMAP
E0
A0
E0
ENDCHAR
STARTCHAR ogonek
ENCODING -1
SWIDTH 600 0
DWIDTH 6 0
BBX 2 2 2 -2
BITMAP
80
C0
ENDCHAR
STARTCHAR tilde
ENCODING -1
SWIDTH 600 0
DWIDTH 6 0
BBX 4 2 1 6
BITMAP
D0
B0
ENDCHAR
STARTCHAR hungarumlaut
ENCODING -1
SWIDTH 600 0
DWIDTH 6 0
BBX 4 2 1 6
BITMAP
50
A0
ENDCHAR
STARTCHAR tonos
ENCODING -1
SWIDTH 600 0
DWIDTH 6 0
BBX 1 2 3 6
BITMAP
80
80
ENDCHAR
STARTCHAR dieresistonos
ENCODING -1
SWIDTH 600 0
DWIDTH 6 0
BBX 4 2 1 6
BITMAP
20
D0
ENDCHAR
STARTCHAR Alphatonos
ENCODING -1
SWIDTH 600 0
DWIDTH 6 0
BBX 6 7 0 0
BITMAP
B0
B0
30
48
78
84
84
ENDCHAR
STARTCHAR anoteleia
ENCODING -1
SWIDTH 600 0
DWIDTH 6 0
BBX 1 1 2 3
BITMAP
80
ENDCHAR
STARTCHAR Epsilontonos
ENCODING -1
SWIDTH 600 0
DWIDTH 6 0
BBX 6 7 -1 0
BITMAP
BC
A0
20
3C
20
20
3C
ENDCHAR
STARTCHAR Etatonos
ENCODING -1
SWIDTH 600 0
DWIDTH 6 0
BBX 6 7 -1 0
BITMAP
A4
A4
24
3C
24
24
24
ENDCHAR
STARTCHAR Iotatonos
ENCODING -1
SWIDTH 600 0
DWIDTH 6 0
BBX 5 7 -1 0
BITMAP
B8
90
10
10
10
10
38
ENDCHAR
STARTCHAR Omicrontonos
ENCODING -1
SWIDTH 600 0
DWIDTH 6 0
BBX 5 7 0 0
BITMAP
B0
C8
48
48
48
48
30
ENDCHAR
STARTCHAR Upsilontonos
ENCODING -1
SWIDTH 600 0
DWIDTH 6 0
BBX 6 7 -1 0
BITMAP
C4
A8
28
10
10
10
10
ENDCHAR
STARTCHAR Omegatonos
ENCODING -1
SWIDTH 600 0
DWIDTH 6 0
BBX 5 7 0 0
BITMAP
B0
C8
48
48
48
48
48
ENDCHAR
STARTCHAR iotadieresistonos
ENCODING -1
SWIDTH 600 0
DWIDTH 6 0
BBX 4 8 1 0
BITMAP
20
D0
00
40
40
40
40
70
ENDCHAR
STARTCHAR Alpha
ENCODING -1
SWIDTH 600 0
DWIDTH 6 0
BBX 6 7 0 0
BITMAP
30
30
30
48
78
84
84
ENDCHAR
STARTCHAR Beta
ENCODING -1
SWIDTH 600 0
DWIDTH 6 0
BBX 4 7 1 0
BITMAP
F0
90
90
E0
90
90
E0
ENDCHAR
STARTCHAR Gamma
ENCODING -1
SWIDTH 600 0
DWIDTH 6 0
BBX 4 7 1 0
BITMAP
F0
80
80
80
80
80
80
ENDCHAR
STARTCHAR uni0394
ENCODING -1
SWIDTH 600 0
DWIDTH 6 0
BBX 6 7 0 0
BITMAP
30
30
48
48
48
84
FC
ENDCHAR
STARTCHAR Epsilon
ENCODING -1
SWIDTH 600 0
DWIDTH 6 0
BBX 4 7 1 0
BITMAP
F0
80
80
F0
80
80
F0
ENDCHAR
STARTCHAR Zeta
ENCODING -1
SWIDTH 600 0
DWIDTH 6 0
BBX 4 7 1 0
BITMAP
F0
10
20
40
40
80
F0
ENDCHAR
STARTCHAR Eta
ENCODING -1
SWIDTH 600 0
DWIDTH 6 0
BBX 4 7 1 0
BITMAP
90
90
90
F0
90
90
90
ENDCHAR
STARTCHAR Theta
ENCODING -1
SWIDTH 600 0
DWIDTH 6 0
BBX 4 7 1 0
BITMAP
60
90
90
F0
90
90
60
ENDCHAR
STARTCHAR Iota
ENCODING -1
SWIDTH 600 0
DWIDTH 6 0
BBX 3 7 1 0
BITMAP
E0
40
40
40
40
40
E0
ENDCHAR
STARTCHAR Kappa
ENCODING -1
SWIDTH 600 0
DWIDTH 6 0
BBX 4 7 1 0
BITMAP
90
A0
A0
C0
A0
A0
90
ENDCHAR
STARTCHAR Lambda
ENCODING -1
SWIDTH 600 0
DWIDTH 6 0
BBX 6 7 0 0
BITMAP
30
30
30
48
48
84
84
ENDCHAR
STARTCHAR Mu
ENCODING -1
SWIDTH 600 0
DWIDTH 6 0
BBX 5 7 0 0
BITMAP
88
88
D8
D8
D8
A8
A8
ENDCHAR
STARTCHAR Nu
ENCODING -1
SWIDTH 600 0
DWIDTH 6 0
BBX 4 7 1 0
BITMAP
90
90
D0
D0
B0
90
90
ENDCHAR
STARTCHAR Xi
ENCODING -1
SWIDTH 600 0
DWIDTH 6 0
BBX 4 7 1 0
BITMAP
F0
00
00
F0
00
00
F0
ENDCHAR
STARTCHAR Omicron
ENCODING -1
SWIDTH 600 0
DWIDTH 6 0
BBX 4 7 1 0
BITMAP
60
90
90
90
90
90
60
ENDCHAR
STARTCHAR Pi
ENCODING -1
SWIDTH 600 0
DWIDTH 6 0
BBX 4 7 1 0
BITMAP
F0
90
90
90
90
90
90
ENDCHAR
STARTCHAR Rho
ENCODING -1
SWIDTH 600 0
DWIDTH 6 0
BBX 4 7 1 0
BITMAP
E0
90
90
90
E0
80
80
ENDCHAR
STARTCHAR Sigma
ENCODING -1
SWIDTH 600 0
DWIDTH 6 0
BBX 4 7 1 0
BITMAP
F0
40
40
20
40
40
F0
ENDCHAR
STARTCHAR Tau
ENCODING -1
SWIDTH 600 0
DWIDTH 6 0
BBX 5 7 0 0
BITMAP
F8
20
20
20
20
20
20
ENDCHAR
STARTCHAR Upsilon
ENCODING -1
SWIDTH 600 0
DWIDTH 6 0
BBX 5 7 0 0
BITMAP
88
50
50
20
20
20
20
ENDCHAR
STARTCHAR Phi
ENCODING -1
SWIDTH 600 0
DWIDTH 6 0
BBX 5 7 0 0
BITMAP
20
70
A8
A8
A8
70
20
ENDCHAR
STARTCHAR Chi
ENCODING -1
SWIDTH 600 0
DWIDTH 6 0
BBX 6 7 0 0
BITMAP
84
48
30
20
30
48
84
ENDCHAR
STARTCHAR Psi
ENCODING -1
SWIDTH 600 0
DWIDTH 6 0
BBX 5 7 0 0
BITMAP
A8
A8
A8
A8
70
20
20
ENDCHAR
STARTCHAR uni03A9
ENCODING -1
SWIDTH 600 0
DWIDTH 6 0
BBX 4 7 1 0
BITMAP
60
90
90
90
90
90
90
ENDCHAR
STARTCHAR Iotadieresis
ENCODING -1
SWIDTH 600 0
DWIDTH 6 0
BBX 3 9 1 0
BITMAP
A0
00
E0
40
40
40
40
40
E0
ENDCHAR
STARTCHAR Upsilondieresis
ENCODING -1
SWIDTH 600 0
DWIDTH 6 0
BBX 5 9 0 0
BITMAP
50
00
88
50
50
20
20
20
20
ENDCHAR
STARTCHAR alphatonos
ENCODING -1
SWIDTH 600 0
DWIDTH 6 0
BBX 5 8 1 0
BITMAP
20
20
00
70
90
90
90
78
ENDCHAR
STARTCHAR epsilontonos
ENCODING -1
SWIDTH 600 0
DWIDTH 6 0
BBX 4 8 1 0
BITMAP
20
20
00
F0
80
60
80
F0
ENDCHAR
STARTCHAR etatonos
ENCODING -1
SWIDTH 600 0
DWIDTH 6 0
BBX 4 10 1 -2
BITMAP
20
20
00
F0
90
90
90
90
10
10
ENDCHAR
STARTCHAR iotatonos
ENCODING -1
SWIDTH 600 0
DWIDTH 6 0
BBX 3 8 2 0
BITMAP
80
80
00
80
80
80
80
E0
ENDCHAR
STARTCHAR upsilondieresistonos
ENCODING -1
SWIDTH 600 0
DWIDTH 6 0
BBX 4 8 1 0
BITMAP
20
D0
00
90
90
90
90
60
ENDCHAR
STARTCHAR alpha
ENCODING -1
SWIDTH 600 0
DWIDTH 6 0
BBX 5 5 1 0
BITMAP
70
90
90
90
78
ENDCHAR
STARTCHAR beta
ENCODING -1
SWIDTH 600 0
DWIDTH 6 0
BBX 4 9 1 -2
BITMAP
60
90
90
A0
90
90
F0
80
80
ENDCHAR
STARTCHAR gamma
ENCODING -1
SWIDTH 600 0
DWIDTH 6 0
BBX 5 7 0 -2
BITMAP
88
50
50
50
20
20
20
ENDCHAR
STARTCHAR delta
ENCODING -1
SWIDTH 600 0
DWIDTH 6 0
BBX 4 7 1 0
BITMAP
70
40
20
50
90
90
60
ENDCHAR
STARTCHAR epsilon
ENCODING -1
SWIDTH 600 0
DWIDTH 6 0
BBX 4 5 1 0
BITMAP
F0
80
60
80
F0
ENDCHAR
STARTCHAR zeta
ENCODING -1
SWIDTH 600 0
DWIDTH 6 0
BBX 4 9 1 -2
BITMAP
F0
20
40
80
80
80
60
10
10
ENDCHAR
STARTCHAR eta
ENCODING -1
SWIDTH 600 0
DWIDTH 6 0
BBX 4 7 1 -2
BITMAP
F0
90
90
90
90
10
10
ENDCHAR
STARTCHAR theta
ENCODING -1
SWIDTH 600 0
DWIDTH 6 0
BBX 4 7 1 0
BITMAP
60
90
90
F0
90
90
60
ENDCHAR
STARTCHAR iota
ENCODING -1
SWIDTH 600 0
DWIDTH 6 0
BBX 3 5 2 0
BITMAP
80
80
80
80
E0
ENDCHAR
STARTCHAR kappa
ENCODING -1
SWIDTH 600 0
DWIDTH 6 0
BBX 5 5 1 0
BITMAP
90
A0
E0
90
88
ENDCHAR
STARTCHAR lambda
ENCODING -1
SWIDTH 600 0
DWIDTH 6 0
BBX 5 7 0 0
BITMAP
60
20
20
30
50
50
88
ENDCHAR
STARTCHAR uni03BC
ENCODING -1
SWIDTH 600 0
DWIDTH 6 0
BBX 4 7 1 -2
BITMAP
90
90
90
90
F0
80
80
ENDCHAR
STARTCHAR nu
ENCODING -1
SWIDTH 600 0
DWIDTH 6 0
BBX 4 5 1 0
BITMAP
90
90
90
60
40
ENDCHAR
STARTCHAR xi
ENCODING -1
SWIDTH 600 0
DWIDTH 6 0
BBX 4 9 1 -2
BITMAP
F0
80
80
70
80
80
60
10
10
ENDCHAR
STARTCHAR omicron
ENCODING -1
SWIDTH 600 0
DWIDTH 6 0
BBX 4 5 1 0
BITMAP
60
90
90
90
60
ENDCHAR
STARTCHAR pi
ENCODING -1
SWIDTH 600 0
DWIDTH 6 0
BBX 6 5 0 0
BITMAP
FC
48
48
48
4C
ENDCHAR
STARTCHAR rho
ENCODING -1
SWIDTH 600 0
DWIDTH 6 0
BBX 4 7 1 -2
BITMAP
60
90
90
90
E0
80
80
ENDCHAR
STARTCHAR sigma1
ENCODING -1
SWIDTH 600 0
DWIDTH 6 0
BBX 4 7 1 -2
BITMAP
70
80
80
80
60
10
10
ENDCHAR
STARTCHAR sigma
ENCODING -1
SWIDTH 600 0
DWIDTH 6 0
BBX 4 5 1 0
BITMAP
70
90
90
90
60
ENDCHAR
STARTCHAR tau
ENCODING -1
SWIDTH 600 0
DWIDTH 6 0
BBX 4 5 1 0
BITMAP
F0
40
40
40
70
ENDCHAR
STARTCHAR upsilon
ENCODING -1
SWIDTH 600 0
DWIDTH 6 0
BBX 4 5 1 0
BITMAP
90
90
90
90
60
ENDCHAR
STARTCHAR phi
ENCODING -1
SWIDTH 600 0
DWIDTH 6 0
BBX 5 7 0 -2
BITMAP
B0
A8
A8
A8
70
20
20
ENDCHAR
STARTCHAR chi
ENCODING -1
SWIDTH 600 0
DWIDTH 6 0
BBX 4 7 1 -2
BITMAP
90
60
60
40
60
60
90
ENDCHAR
STARTCHAR psi
ENCODING -1
SWIDTH 600 0
DWIDTH 6 0
BBX 5 9 0 -2
BITMAP
20
20
A8
A8
A8
A8
70
20
20
ENDCHAR
STARTCHAR omega
ENCODING -1
SWIDTH 600 0
DWIDTH 6 0
BBX 5 5 0 0
BITMAP
88
88
A8
A8
D8
ENDCHAR
STARTCHAR iotadieresis
ENCODING -1
SWIDTH 600 0
DWIDTH 6 0
BBX 4 7 1 0
BITMAP
A0
00
40
40
40
40
70
ENDCHAR
STARTCHAR upsilondieresis
ENCODING -1
SWIDTH 600 0
DWIDTH 6 0
BBX 4 7 1 0
BITMAP
50
00
90
90
90
90
60
ENDCHAR
STARTCHAR omicrontonos
ENCODING -1
SWIDTH 600 0
DWIDTH 6 0
BBX 4 8 1 0
BITMAP
20
20
00
60
90
90
90
60
ENDCHAR
STARTCHAR upsilontonos
ENCODING -1
SWIDTH 600 0
DWIDTH 6 0
BBX 4 8 1 0
BITMAP
20
20
00
90
90
90
90
60
ENDCHAR
STARTCHAR omegatonos
ENCODING -1
SWIDTH 600 0
DWIDTH 6 0
BBX 5 8 0 0
BITMAP
20
20
00
88
88
A8
A8
D8
ENDCHAR
STARTCHAR uni0401
ENCODING -1
SWIDTH 600 0
DWIDTH 6 0
BBX 4 9 1 0
BITMAP
50
00
F0
80
80
F0
80
80
F0
ENDCHAR
STARTCHAR uni0402
ENCODING -1
SWIDTH 600 0
DWIDTH 6 0
BBX 5 7 0 0
BITMAP
E0
40
40
78
48
48
58
ENDCHAR
STARTCHAR uni0403
ENCODING -1
SWIDTH 600 0
DWIDTH 6 0
BBX 4 10 1 0
BITMAP
10
20
00
F0
80
80
80
80
80
80
ENDCHAR
STARTCHAR uni0404
ENCODING -1
SWIDTH 600 0
DWIDTH 6 0
BBX 4 7 1 0
BITMAP
70
80
80
E0
80
80
70
ENDCHAR
STARTCHAR uni0405
ENCODING -1
SWIDTH 600 0
DWIDTH 6 0
BBX 4 7 1 0
BITMAP
70
80
80
60
10
10
E0
ENDCHAR
STARTCHAR uni0406
ENCODING -1
SWIDTH 600 0
DWIDTH 6 0
BBX 3 7 1 0
BITMAP
E0
40
40
40
40
40
E0
ENDCHAR
STARTCHAR uni0407
ENCODING -1
SWIDTH 600 0
DWIDTH 6 0
BBX 3 9 1 0
BITMAP
A0
00
E0
40
40
40
40
40
E0
ENDCHAR
STARTCHAR uni0408
ENCODING -1
SWIDTH 600 0
DWIDTH 6 0
BBX 3 7 1 0
BITMAP
20
20
20
20
20
20
C0
ENDCHAR
STARTCHAR uni0409
ENCODING -1
SWIDTH 600 0
DWIDTH 6 0
BBX 6 7 0 0
BITMAP
70
50
50
5C
54
54
98
ENDCHAR
STARTCHAR uni040A
ENCODING -1
SWIDTH 600 0
DWIDTH 6 0
BBX 5 7 1 0
BITMAP
A0
A0
A0
F8
A8
A8
B0
ENDCHAR
STARTCHAR uni040B
ENCODING -1
SWIDTH 600 0
DWIDTH 6 0
BBX 5 7 0 0
BITMAP
E0
40
40
78
48
48
48
ENDCHAR
STARTCHAR uni040C
ENCODING -1
SWIDTH 600 0
DWIDTH 6 0
BBX 4 10 1 0
BITMAP
10
20
00
90
A0
A0
C0
A0
A0
90
ENDCHAR
STARTCHAR uni040E
ENCODING -1
SWIDTH 600 0
DWIDTH 6 0
BBX 5 10 1 0
BITMAP
48
70
00
88
88
50
50
20
20
C0
ENDCHAR
STARTCHAR uni040F
ENCODING -1
SWIDTH 600 0
DWIDTH 6 0
BBX 4 9 1 -2
BITMAP
90
90
90
90
90
90
F0
40
40
ENDCHAR
STARTCHAR uni0410
ENCODING -1
SWIDTH 600 0
DWIDTH 6 0
BBX 6 7 0 0
BITMAP
30
30
30
48
78
84
84
ENDCHAR
STARTCHAR uni0411
ENCODING -1
SWIDTH 600 0
DWIDTH 6 0
BBX 4 7 1 0
BITMAP
F0
80
80
E0
90
90
E0
ENDCHAR
STARTCHAR uni0412
ENCODING -1
SWIDTH 600 0
DWIDTH 6 0
BBX 4 7 1 0
BITMAP
F0
90
90
E0
90
90
E0
ENDCHAR
STARTCHAR uni0413
ENCODING -1
SWIDTH 600 0
DWIDTH 6 0
BBX 4 7 1 0
BITMAP
F0
80
80
80
80
80
80
ENDCHAR
STARTCHAR uni0414
ENCODING -1
SWIDTH 600 0
DWIDTH 6 0
BBX 6 9 0 -2
BITMAP
78
48
48
48
48
88
FC
84
84
ENDCHAR
STARTCHAR uni0415
ENCODING -1
SWIDTH 600 0
DWIDTH 6 0
BBX 4 7 1 0
BITMAP
F0
80
80
F0
80
80
F0
ENDCHAR
STARTCHAR uni0416
ENCODING -1
SWIDTH 600 0
DWIDTH 6 0
BBX 5 7 0 0
BITMAP
A8
A8
70
20
70
A8
A8
ENDCHAR
STARTCHAR uni0417
ENCODING -1
SWIDTH 600 0
DWIDTH 6 0
BBX 4 7 1 0
BITMAP
F0
10
10
60
10
10
E0
ENDCHAR
STARTCHAR uni0418
ENCODING -1
SWIDTH 600 0
DWIDTH 6 0
BBX 4 7 1 0
BITMAP
90
90
B0
D0
D0
90
90
ENDCHAR
STARTCHAR uni0419
ENCODING -1
SWIDTH 600 0
DWIDTH 6 0
BBX 4 10 1 0
BITMAP
90
E0
00
90
90
B0
D0
D0
90
90
ENDCHAR
STARTCHAR uni041A
ENCODING -1
SWIDTH 600 0
DWIDTH 6 0
BBX 4 7 1 0
BITMAP
90
A0
A0
C0
A0
A0
90
ENDCHAR
STARTCHAR uni041B
ENCODING -1
SWIDTH 600 0
DWIDTH 6 0
BBX 5 7 0 0
BITMAP
78
48
48
48
48
48
88
ENDCHAR
STARTCHAR uni041C
ENCODING -1
SWIDTH 600 0
DWIDTH 6 0
BBX 5 7 0 0
BITMAP
88
88
D8
D8
D8
A8
A8
ENDCHAR
STARTCHAR uni041D
ENCODING -1
SWIDTH 600 0
DWIDTH 6 0
BBX 4 7 1 0
BITMAP
90
90
90
F0
90
90
90
ENDCHAR
STARTCHAR uni041E
ENCODING -1
SWIDTH 600 0
DWIDTH 6 0
BBX 4 7 1 0
BITMAP
60
90
90
90
90
90
60
ENDCHAR
STARTCHAR uni041F
ENCODING -1
SWIDTH 600 0
DWIDTH 6 0
BBX 4 7 1 0
BITMAP
F0
90
90
90
90
90
90
ENDCHAR
STARTCHAR uni0420
ENCODING -1
SWIDTH 600 0
DWIDTH 6 0
BBX 4 7 1 0
BITMAP
E0
90
90
90
E0
80
80
ENDCHAR
STARTCHAR uni0421
ENCODING -1
SWIDTH 600 0
DWIDTH 6 0
BBX 4 7 1 0
BITMAP
70
80
80
80
80
80
70
ENDCHAR
STARTCHAR uni0422
ENCODING -1
SWIDTH 600 0
DWIDTH 6 0
BBX 5 7 0 0
BITMAP
F8
20
20
20
20
20
20
ENDCHAR
STARTCHAR uni0423
ENCODING -1
SWIDTH 600 0
DWIDTH 6 0
BBX 5 7 1 0
BITMAP
88
88
50
50
20
20
C0
ENDCHAR
STARTCHAR uni0424
ENCODING -1
SWIDTH 600 0
DWIDTH 6 0
BBX 5 7 0 0
BITMAP
20
70
A8
A8
A8
70
20
ENDCHAR
STARTCHAR uni0425
ENCODING -1
SWIDTH 600 0
DWIDTH 6 0
BBX 6 7 0 0
BITMAP
84
48
30
20
30
48
84
ENDCHAR
STARTCHAR uni0426
ENCODING -1
SWIDTH 600 0
DWIDTH 6 0
BBX 5 9 1 -2
BITMAP
90
90
90
90
90
90
F8
08
08
ENDCHAR
STARTCHAR uni0427
ENCODING -1
SWIDTH 600 0
DWIDTH 6 0
BBX 4 7 1 0
BITMAP
90
90
90
90
F0
10
10
ENDCHAR
STARTCHAR uni0428
ENCODING -1
SWIDTH 600 0
DWIDTH 6 0
BBX 5 7 0 0
BITMAP
A8
A8
A8
A8
A8
A8
F8
ENDCHAR
STARTCHAR uni0429
ENCODING -1
SWIDTH 600 0
DWIDTH 6 0
BBX 6 9 0 -2
BITMAP
A8
A8
A8
A8
A8
A8
FC
04
04
ENDCHAR
STARTCHAR uni042A
ENCODING -1
SWIDTH 600 0
DWIDTH 6 0
BBX 5 7 0 0
BITMAP
E0
20
20
38
28
28
30
ENDCHAR
STARTCHAR uni042B
ENCODING -1
SWIDTH 600 0
DWIDTH 6 0
BBX 5 7 0 0
BITMAP
88
88
88
E8
A8
A8
C8
ENDCHAR
STARTCHAR uni042C
ENCODING -1
SWIDTH 600 0
DWIDTH 6 0
BBX 4 7 1 0
BITMAP
80
80
80
E0
90
90
E0
ENDCHAR
STARTCHAR uni042D
ENCODING -1
SWIDTH 600 0
DWIDTH 6 0
BBX 4 7 1 0
BITMAP
E0
10
10
70
10
10
E0
ENDCHAR
STARTCHAR uni042E
ENCODING -1
SWIDTH 600 0
DWIDTH 6 0
BBX 6 7 0 0
BITMAP
98
A4
A4
E4
A4
A4
98
ENDCHAR
STARTCHAR uni042F
ENCODING -1
SWIDTH 600 0
DWIDTH 6 0
BBX 5 7 0 0
BITMAP
38
48
48
38
28
48
88
ENDCHAR
STARTCHAR uni0430
ENCODING -1
SWIDTH 600 0
DWIDTH 6 0
BBX 4 5 1 0
BITMAP
F0
10
F0
90
F0
ENDCHAR
STARTCHAR uni0431
ENCODING -1
SWIDTH 600 0
DWIDTH 6 0
BBX 4 7 1 0
BITMAP
70
80
E0
90
90
90
60
ENDCHAR
STARTCHAR uni0432
ENCODING -1
SWIDTH 600 0
DWIDTH 6 0
BBX 4 5 1 0
BITMAP
E0
90
E0
90
E0
ENDCHAR
STARTCHAR uni0433
ENCODING -1
SWIDTH 600 0
DWIDTH 6 0
BBX 3 5 2 0
BITMAP
E0
80
80
80
80
ENDCHAR
STARTCHAR uni0434
ENCODING -1
SWIDTH 600 0
DWIDTH 6 0
BBX 6 7 0 -2
BITMAP
78
48
48
88
FC
84
84
ENDCHAR
STARTCHAR uni0435
ENCODING -1
SWIDTH 600 0
DWIDTH 6 0
BBX 4 5 1 0
BITMAP
60
90
F0
80
70
ENDCHAR
STARTCHAR uni0436
ENCODING -1
SWIDTH 600 0
DWIDTH 6 0
BBX 5 5 0 0
BITMAP
A8
70
20
70
A8
ENDCHAR
STARTCHAR uni0437
ENCODING -1
SWIDTH 600 0
DWIDTH 6 0
BBX 4 5 1 0
BITMAP
F0
10
60
10
F0
ENDCHAR
STARTCHAR uni0438
ENCODING -1
SWIDTH 600 0
DWIDTH 6 0
BBX 4 5 1 0
BITMAP
90
B0
D0
D0
90
ENDCHAR
STARTCHAR uni0439
ENCODING -1
SWIDTH 600 0
DWIDTH 6 0
BBX 4 8 1 0
BITMAP
90
E0
00
90
B0
D0
D0
90
ENDCHAR
STARTCHAR uni043A
ENCODING -1
SWIDTH 600 0
DWIDTH 6 0
BBX 4 5 1 0
BITMAP
90
A0
C0
A0
90
ENDCHAR
STARTCHAR uni043B
ENCODING -1
SWIDTH 600 0
DWIDTH 6 0
BBX 5 5 0 0
BITMAP
78
48
48
48
88
ENDCHAR
STARTCHAR uni043C
ENCODING -1
SWIDTH 600 0
DWIDTH 6 0
BBX 5 5 0 0
BITMAP
88
D8
D8
E8
A8
ENDCHAR
STARTCHAR uni043D
ENCODING -1
SWIDTH 600 0
DWIDTH 6 0
BBX 4 5 1 0
BITMAP
90
90
F0
90
90
ENDCHAR
STARTCHAR uni043E
ENCODING -1
SWIDTH 600 0
DWIDTH 6 0
BBX 4 5 1 0
BITMAP
60
90
90
90
60
ENDCHAR
STARTCHAR uni043F
ENCODING -1
SWIDTH 600 0
DWIDTH 6 0
BBX 4 5 1 0
BITMAP
F0
90
90
90
90
ENDCHAR
STARTCHAR uni0440
ENCODING -1
SWIDTH 600 0
DWIDTH 6 0
BBX 4 7 1 -2
BITMAP
E0
90
90
90
E0
80
80
ENDCHAR
STARTCHAR uni0441
ENCODING -1
SWIDTH 600 0
DWIDTH 6 0
BBX 4 5 1 0
BITMAP
70
80
80
80
70
ENDCHAR
STARTCHAR uni0442
ENCODING -1
SWIDTH 600 0
DWIDTH 6 0
BBX 5 5 0 0
BITMAP
F8
20
20
20
20
ENDCHAR
STARTCHAR uni0443
ENCODING -1
SWIDTH 600 0
DWIDTH 6 0
BBX 4 7 1 -2
BITMAP
90
90
60
60
20
40
C0
ENDCHAR
STARTCHAR uni0444
ENCODING -1
SWIDTH 600 0
DWIDTH 6 0
BBX 5 9 0 -2
BITMAP
20
20
70
A8
A8
A8
70
20
20
ENDCHAR
STARTCHAR uni0445
ENCODING -1
SWIDTH 600 0
DWIDTH 6 0
BBX 4 5 1 0
BITMAP
90
60
40
60
90
ENDCHAR
STARTCHAR uni0446
ENCODING -1
SWIDTH 600 0
DWIDTH 6 0
BBX 5 7 1 -2
BITMAP
90
90
90
90
F8
08
08
ENDCHAR
STARTCHAR uni0447
ENCODING -1
SWIDTH 600 0
DWIDTH 6 0
BBX 4 5 1 0
BITMAP
90
90
F0
10
10
ENDCHAR
STARTCHAR uni0448
ENCODING -1
SWIDTH 600 0
DWIDTH 6 0
BBX 5 5 0 0
BITMAP
A8
A8
A8
A8
F8
ENDCHAR
STARTCHAR uni0449
ENCODING -1
SWIDTH 600 0
DWIDTH 6 0
BBX 6 7 0 -2
BITMAP
A8
A8
A8
A8
FC
04
04
ENDCHAR
STARTCHAR uni044A
ENCODING -1
SWIDTH 600 0
DWIDTH 6 0
BBX 5 5 0 0
BITMAP
E0
20
38
28
38
ENDCHAR
STARTCHAR uni044B
ENCODING -1
SWIDTH 600 0
DWIDTH 6 0
BBX 5 5 0 0
BITMAP
88
88
E8
A8
E8
ENDCHAR
STARTCHAR uni044C
ENCODING -1
SWIDTH 600 0
DWIDTH 6 0
BBX 4 5 1 0
BITMAP
80
80
F0
90
F0
ENDCHAR
STARTCHAR uni044D
ENCODING -1
SWIDTH 600 0
DWIDTH 6 0
BBX 4 5 1 0
BITMAP
E0
10
70
10
E0
ENDCHAR
STARTCHAR uni044E
ENCODING -1
SWIDTH 600 0
DWIDTH 6 0
BBX 6 5 0 0
BITMAP
98
A4
E4
A4
98
ENDCHAR
STARTCHAR uni044F
ENCODING -1
SWIDTH 600 0
DWIDTH 6 0
BBX 4 5 1 0
BITMAP
F0
90
70
50
90
ENDCHAR
STARTCHAR uni0451
ENCODING -1
SWIDTH 600 0
DWIDTH 6 0
BBX 4 7 1 0
BITMAP
50
00
60
90
F0
80
70
ENDCHAR
STARTCHAR uni0452
ENCODING -1
SWIDTH 600 0
DWIDTH 6 0
BBX 5 9 0 -2
BITMAP
40
E0
40
78
48
48
48
08
18
ENDCHAR
STARTCHAR uni0453
ENCODING -1
SWIDTH 600 0
DWIDTH 6 0
BBX 3 8 2 0
BITMAP
20
40
00
E0
80
80
80
80
ENDCHAR
STARTCHAR uni0454
ENCODING -1
SWIDTH 600 0
DWIDTH 6 0
BBX 4 5 1 0
BITMAP
70
80
E0
80
70
ENDCHAR
STARTCHAR uni0455
ENCODING -1
SWIDTH 600 0
DWIDTH 6 0
BBX 4 5 1 0
BITMAP
F0
80
60
10
F0
ENDCHAR
STARTCHAR uni0456
ENCODING -1
SWIDTH 600 0
DWIDTH 6 0
BBX 5 7 1 0
BITMAP
20
00
60
20
20
20
F8
ENDCHAR
STARTCHAR uni0457
ENCODING -1
SWIDTH 600 0
DWIDTH 6 0
BBX 5 7 1 0
BITMAP
50
00
60
20
20
20
F8
ENDCHAR
STARTCHAR uni0458
ENCODING -1
SWIDTH 600 0
DWIDTH 6 0
BBX 3 9 1 -2
BITMAP
20
00
E0
20
20
20
20
20
E0
ENDCHAR
STARTCHAR uni0459
ENCODING -1
SWIDTH 600 0
DWIDTH 6 0
BBX 6 5 0 0
BITMAP
70
50
5C
54
9C
ENDCHAR
STARTCHAR uni045A
ENCODING -1
SWIDTH 600 0
DWIDTH 6 0
BBX 6 5 0 0
BITMAP
90
90
FC
94
9C
ENDCHAR
STARTCHAR uni045B
ENCODING -1
SWIDTH 600 0
DWIDTH 6 0
BBX 5 7 0 0
BITMAP
40
F0
40
78
48
48
48
ENDCHAR
STARTCHAR uni045C
ENCODING -1
SWIDTH 600 0
DWIDTH 6 0
BBX 5 8 1 0
BITMAP
10
20
00
90
A0
E0
90
88
ENDCHAR
STARTCHAR uni045E
ENCODING -1
SWIDTH 600 0
DWIDTH 6 0
BBX 4 10 1 -2
BITMAP
90
E0
00
90
90
60
60
20
40
C0
ENDCHAR
STARTCHAR uni045F
ENCODING -1
SWIDTH 600 0
DWIDTH 6 0
BBX 4 7 1 -2
BITMAP
90
90
90
90
F0
40
40
ENDCHAR
STARTCHAR uni0490
ENCODING -1
SWIDTH 600 0
DWIDTH 6 0
BBX 4 8 1 0
BITMAP
10
F0
80
80
80
80
80
80
ENDCHAR
STARTCHAR uni0491
ENCODING -1
SWIDTH 600 0
DWIDTH 6 0
BBX 4 7 1 0
BITMAP
10
10
F0
80
80
80
80
ENDCHAR
STARTCHAR Wgrave
ENCODING -1
SWIDTH 600 0
DWIDTH 6 0
BBX 5 10 0 0
BITMAP
40
20
00
88
88
A8
A8
A8
50
50
ENDCHAR
STARTCHAR wgrave
ENCODING -1
SWIDTH 600 0
DWIDTH 6 0
BBX 5 8 0 0
BITMAP
40
20
00
A8
A8
A8
50
50
ENDCHAR
STARTCHAR Wacute
ENCODING -1
SWIDTH 600 0
DWIDTH 6 0
BBX 5 10 0 0
BITMAP
10
20
00
88
88
A8
A8
A8
50
50
ENDCHAR
STARTCHAR wacute
ENCODING -1
SWIDTH 600 0
DWIDTH 6 0
BBX 5 8 0 0
BITMAP
10
20
00
A8
A8
A8
50
50
ENDCHAR
STARTCHAR Wdieresis
ENCODING -1
SWIDTH 600 0
DWIDTH 6 0
BBX 5 9 0 0
BITMAP
50
00
88
88
A8
A8
A8
50
50
ENDCHAR
STARTCHAR wdieresis
ENCODING -1
SWIDTH 600 0
DWIDTH 6 0
BBX 5 7 0 0
BITMAP
50
00
A8
A8
A8
50
50
ENDCHAR
STARTCHAR Ygrave
ENCODING -1
SWIDTH 600 0
DWIDTH 6 0
BBX 5 10 0 0
BITMAP
40
20
00
88
50
50
20
20
20
20
ENDCHAR
STARTCHAR ygrave
ENCODING -1
SWIDTH 600 0
DWIDTH 6 0
BBX 4 10 1 -2
BITMAP
40
20
00
90
90
60
60
20
40
C0
ENDCHAR
STARTCHAR endash
ENCODING -1
SWIDTH 600 0
DWIDTH 6 0
BBX 4 1 1 2
BITMAP
F0
ENDCHAR
STARTCHAR emdash
ENCODING -1
SWIDTH 600 0
DWIDTH 6 0
BBX 6 1 0 2
BITMAP
FC
ENDCHAR
STARTCHAR uni2015
ENCODING -1
SWIDTH 600 0
DWIDTH 6 0
BBX 6 1 0 2
BITMAP
FC
ENDCHAR
STARTCHAR underscoredbl
ENCODING -1
SWIDTH 600 0
DWIDTH 6 0
BBX 4 2 1 -2
BITMAP
F0
F0
ENDCHAR
STARTCHAR quoteleft
ENCODING -1
SWIDTH 600 0
DWIDTH 6 0
BBX 2 3 2 4
BITMAP
40
80
80
ENDCHAR
STARTCHAR quoteright
ENCODING -1
SWIDTH 600 0
DWIDTH 6 0
BBX 2 3 2 4
BITMAP
40
40
80
ENDCHAR
STARTCHAR quotesinglbase
ENCODING -1
SWIDTH 600 0
DWIDTH 6 0
BBX 2 3 2 -1
BITMAP
40
40
80
ENDCHAR
STARTCHAR quotereversed
ENCODING -1
SWIDTH 600 0
DWIDTH 6 0
BBX 2 3 2 4
BITMAP
80
80
40
ENDCHAR
STARTCHAR quotedblleft
ENCODING -1
SWIDTH 600 0
DWIDTH 6 0
BBX 4 3 1 4
BITMAP
50
A0
A0
ENDCHAR
STARTCHAR quotedblright
ENCODING -1
SWIDTH 600 0
DWIDTH 6 0
BBX 4 3 1 4
BITMAP
50
50
A0
ENDCHAR
STARTCHAR quotedblbase
ENCODING -1
SWIDTH 600 0
DWIDTH 6 0
BBX 4 3 1 -1
BITMAP
50
50
A0
ENDCHAR
STARTCHAR dagger
ENCODING -1
SWIDTH 600 0
DWIDTH 6 0
BBX 3 7 1 0
BITMAP
40
40
E0
40
40
40
40
ENDCHAR
STARTCHAR daggerdbl
ENCODING -1
SWIDTH 600 0
DWIDTH 6 0
BBX 3 7 1 0
BITMAP
40
40
E0
40
E0
40
40
ENDCHAR
STARTCHAR bullet
ENCODING -1
SWIDTH 600 0
DWIDTH 6 0
BBX 3 3 1 2
BITMAP
E0
E0
E0
ENDCHAR
STARTCHAR ellipsis
ENCODING -1
SWIDTH 600 0
DWIDTH 6 0
BBX 5 1 0 0
BITMAP
A8
ENDCHAR
STARTCHAR perthousand
ENCODING -1
SWIDTH 600 0
DWIDTH 6 0
BBX 5 7 0 0
BITMAP
E0
A0
E0
E0
F8
A8
F8
ENDCHAR
STARTCHAR minute
ENCODING -1
SWIDTH 600 0
DWIDTH 6 0
BBX 1 3 2 4
BITMAP
80
80
80
ENDCHAR
STARTCHAR second
ENCODING -1
SWIDTH 600 0
DWIDTH 6 0
BBX 3 3 1 4
BITMAP
A0
A0
A0
ENDCHAR
STARTCHAR guilsinglleft
ENCODING -1
SWIDTH 600 0
DWIDTH 6 0
BBX 2 5 2 0
BITMAP
40
80
80
80
40
ENDCHAR
STARTCHAR guilsinglright
ENCODING -1
SWIDTH 600 0
DWIDTH 6 0
BBX 2 5 2 0
BITMAP
80
80
40
80
80
ENDCHAR
STARTCHAR exclamdbl
ENCODING -1
SWIDTH 600 0
DWIDTH 6 0
BBX 3 7 1 0
BITMAP
A0
A0
A0
A0
A0
00
A0
ENDCHAR
STARTCHAR fraction
ENCODING -1
SWIDTH 600 0
DWIDTH 6 0
BBX 4 7 1 0
BITMAP
10
20
20
40
40
40
80
ENDCHAR
STARTCHAR uni207F
ENCODING -1
SWIDTH 600 0
DWIDTH 6 0
BBX 3 4 1 3
BITMAP
E0
A0
A0
A0
ENDCHAR
STARTCHAR franc
ENCODING -1
SWIDTH 600 0
DWIDTH 6 0
BBX 5 7 0 0
BITMAP
78
40
40
78
40
F0
40
ENDCHAR
STARTCHAR lira
ENCODING -1
SWIDTH 600 0
DWIDTH 6 0
BBX 4 7 1 0
BITMAP
70
40
E0
40
E0
40
F0
ENDCHAR
STARTCHAR peseta
ENCODING -1
SWIDTH 600 0
DWIDTH 6 0
BBX 5 7 1 0
BITMAP
C0
A0
B0
D8
90
90
98
ENDCHAR
STARTCHAR Euro
ENCODING -1
SWIDTH 600 0
DWIDTH 6 0
BBX 5 7 0 0
BITMAP
38
40
F0
40
F0
40
38
ENDCHAR
STARTCHAR uni2105
ENCODING -1
SWIDTH 600 0
DWIDTH 6 0
BBX 6 7 0 0
BITMAP
C8
90
D0
20
28
34
48
ENDCHAR
STARTCHAR uni2113
ENCODING -1
SWIDTH 600 0
DWIDTH 6 0
BBX 4 7 1 0
BITMAP
70
50
50
E0
40
50
70
ENDCHAR
STARTCHAR uni2116
ENCODING -1
SWIDTH 600 0
DWIDTH 6 0
BBX 6 7 0 0
BITMAP
A0
A0
A8
F4
A8
A0
BC
ENDCHAR
STARTCHAR trademark
ENCODING -1
SWIDTH 600 0
DWIDTH 6 0
BBX 6 4 0 3
BITMAP
F4
54
54
5C
ENDCHAR
STARTCHAR Omega
ENCODING -1
SWIDTH 600 0
DWIDTH 6 0
BBX 4 7 1 0
BITMAP
60
90
90
90
90
90
90
ENDCHAR
STARTCHAR estimated
ENCODING -1
SWIDTH 600 0
DWIDTH 6 0
BBX 4 5 1 0
BITMAP
60
90
E0
80
60
ENDCHAR
STARTCHAR oneeighth
ENCODING -1
SWIDTH 600 0
DWIDTH 6 0
BBX 6 7 0 0
BITMAP
C8
50
50
5C
3C
34
5C
ENDCHAR
STARTCHAR threeeighths
ENCODING -1
SWIDTH 600 0
DWIDTH 6 0
BBX 6 7 0 0
BITMAP
E8
70
30
FC
3C
34
5C
ENDCHAR
STARTCHAR fiveeighths
ENCODING -1
SWIDTH 600 0
DWIDTH 6 0
BBX 6 7 0 0
BITMAP
E8
F0
30
FC
3C
34
5C
ENDCHAR
STARTCHAR seveneighths
ENCODING -1
SWIDTH 600 0
DWIDTH 6 0
BBX 6 7 0 0
BITMAP
E8
50
50
9C
3C
34
5C
ENDCHAR
STARTCHAR partialdiff
ENCODING -1
SWIDTH 600 0
DWIDTH 6 0
BBX 4 7 1 0
BITMAP
60
10
70
90
90
A0
E0
ENDCHAR
STARTCHAR Delta
ENCODING -1
SWIDTH 600 0
DWIDTH 6 0
BBX 6 7 0 0
BITMAP
30
30
48
48
48
84
FC
ENDCHAR
STARTCHAR product
ENCODING -1
SWIDTH 600 0
DWIDTH 6 0
BBX 4 9 1 -2
BITMAP
F0
90
90
90
90
90
90
90
90
ENDCHAR
STARTCHAR summation
ENCODING -1
SWIDTH 600 0
DWIDTH 6 0
BBX 4 9 1 -2
BITMAP
F0
40
40
20
20
40
40
80
F0
ENDCHAR
STARTCHAR minus
ENCODING -1
SWIDTH 600 0
DWIDTH 6 0
BBX 4 1 1 3
BITMAP
F0
ENDCHAR
STARTCHAR radical
ENCODING -1
SWIDTH 600 0
DWIDTH 6 0
BBX 6 8 0 0
BITMAP
04
04
08
08
D0
50
50
20
ENDCHAR
STARTCHAR infinity
ENCODING -1
SWIDTH 600 0
DWIDTH 6 0
BBX 5 3 0 2
BITMAP
50
A8
50
ENDCHAR
STARTCHAR integral
ENCODING -1
SWIDTH 600 0
DWIDTH 6 0
BBX 3 9 1 -2
BITMAP
60
40
40
40
40
40
40
40
80
ENDCHAR
STARTCHAR approxequal
ENCODING -1
SWIDTH 600 0
DWIDTH 6 0
BBX 4 4 1 2
BITMAP
C0
30
C0
30
ENDCHAR
STARTCHAR notequal
ENCODING -1
SWIDTH 600 0
DWIDTH 6 0
BBX 4 5 1 1
BITMAP
20
F0
40
F0
40
ENDCHAR
STARTCHAR lessequal
ENCODING -1
SWIDTH 600 0
DWIDTH 6 0
BBX 4 6 1 0
BITMAP
10
60
80
60
10
F0
ENDCHAR
STARTCHAR greaterequal
ENCODING -1
SWIDTH 600 0
DWIDTH 6 0
BBX 4 6 1 0
BITMAP
80
60
10
60
80
F0
ENDCHAR
STARTCHAR lozenge
ENCODING -1
SWIDTH 600 0
DWIDTH 6 0
BBX 4 7 1 0
BITMAP
40
60
90
90
90
60
40
ENDCHAR
STARTCHAR uniFB01
ENCODING -1
SWIDTH 600 0
DWIDTH 6 0
BBX 5 7 0 0
BITMAP
68
40
E8
48
48
48
48
ENDCHAR
STARTCHAR uniFB02
ENCODING -1
SWIDTH 600 0
DWIDTH 6 0
BBX 5 7 0 0
BITMAP
68
48
E8
48
48
48
48
ENDCHAR
STARTCHAR glyph566
ENCODING -1
SWIDTH 600 0
DWIDTH 6 0
BBX 4 2 1 6
BITMAP
90
E0
ENDCHAR
STARTCHAR glyph567
ENCODING -1
SWIDTH 600 0
DWIDTH 6 0
BBX 3 7 1 -2
BITMAP
E0
20
20
20
20
20
E0
ENDCHAR
STARTCHAR glyph568
ENCODING -1
SWIDTH 600 0
DWIDTH 6 0
BBX 1 2 3 5
BITMAP
80
80
ENDCHAR
STARTCHAR glyph569
ENCODING -1
SWIDTH 600 0
DWIDTH 6 0
BBX 1 2 3 -2
BITMAP
80
80
ENDCHAR
STARTCHAR glyph570
ENCODING -1
SWIDTH 600 0
DWIDTH 6 0
BBX 1 2 3 6
BITMAP
80
80
ENDCHAR
STARTCHAR glyph571
ENCODING -1
SWIDTH 600 0
DWIDTH 6 0
BBX 3 4 2 3
BITMAP
20
60
E0
20
ENDCHAR
STARTCHAR glyph572
ENCODING -1
SWIDTH 600 0
DWIDTH 6 0
BBX 3 4 2 3
BITMAP
E0
E0
20
E0
ENDCHAR
STARTCHAR glyph573
ENCODING -1
SWIDTH 600 0
DWIDTH 6 0
BBX 3 4 2 3
BITMAP
E0
40
40
80
ENDCHAR
STARTCHAR glyph574
ENCODING -1
SWIDTH 600 0
DWIDTH 6 0
BBX 3 4 2 3
BITMAP
E0
E0
A0
E0
ENDCHAR
STARTCHAR uni2000
ENCODING -1
SWIDTH 600 0
DWIDTH 6 0
BBX 1 1 0 0
BITMAP
00
ENDCHAR
STARTCHAR uni2001
ENCODING -1
SWIDTH 600 0
DWIDTH 6 0
BBX 1 1 0 0
BITMAP
00
ENDCHAR
STARTCHAR uni2002
ENCODING -1
SWIDTH 600 0
DWIDTH 6 0
BBX 1 1 0 0
BITMAP
00
ENDCHAR
STARTCHAR uni2003
ENCODING -1
SWIDTH 600 0
DWIDTH 6 0
BBX 1 1 0 0
BITMAP
00
ENDCHAR
STARTCHAR uni2004
ENCODING -1
SWIDTH 600 0
DWIDTH 6 0
BBX 1 1 0 0
BITMAP
00
ENDCHAR
STARTCHAR uni2005
ENCODING -1
SWIDTH 600 0
DWIDTH 6 0
BBX 1 1 0 0
BITMAP
00
ENDCHAR
STARTCHAR uni2006
ENCODING -1
SWIDTH 600 0
DWIDTH 6 0
BBX 1 1 0 0
BITMAP
00
ENDCHAR
STARTCHAR uni2007
ENCODING -1
SWIDTH 600 0
DWIDTH 6 0
BBX 1 1 0 0
BITMAP
00
ENDCHAR
STARTCHAR uni2008
ENCODING -1
SWIDTH 600 0
DWIDTH 6 0
BBX 1 1 0 0
BITMAP
00
ENDCHAR
STARTCHAR uni2009
ENCODING -1
SWIDTH 600 0
DWIDTH 6 0
BBX 1 1 0 0
BITMAP
00
ENDCHAR
STARTCHAR uni200A
ENCODING -1
SWIDTH 600 0
DWIDTH 6 0
BBX 1 1 0 0
BITMAP
00
ENDCHAR
STARTCHAR uni200B
ENCODING -1
SWIDTH 600 0
DWIDTH 6 0
BBX 1 1 0 0
BITMAP
00
ENDCHAR
STARTCHAR uniFEFF
ENCODING -1
SWIDTH 600 0
DWIDTH 6 0
BBX 1 1 0 0
BITMAP
00
ENDCHAR
STARTCHAR uniFFFC
ENCODING -1
SWIDTH 600 0
DWIDTH 6 0
BBX 6 9 0 -2
BITMAP
B4
60
E4
00
B4
30
8C
00
B4
ENDCHAR
STARTCHAR uniFFFD
ENCODING -1
SWIDTH 600 0
DWIDTH 6 0
BBX 5 9 1 -1
BITMAP
20
70
90
E8
D8
F8
50
70
20
ENDCHAR
STARTCHAR uni01F0
ENCODING -1
SWIDTH 600 0
DWIDTH 6 0
BBX 4 10 1 -2
BITMAP
50
20
00
E0
20
20
20
20
20
E0
ENDCHAR
STARTCHAR uni02BC
ENCODING -1
SWIDTH 600 0
DWIDTH 6 0
BBX 2 3 2 4
BITMAP
40
40
80
ENDCHAR
STARTCHAR theta1
ENCODING -1
SWIDTH 600 0
DWIDTH 6 0
BBX 6 7 0 0
BITMAP
70
48
48
3C
C8
48
70
ENDCHAR
STARTCHAR Upsilon1
ENCODING -1
SWIDTH 600 0
DWIDTH 6 0
BBX 5 7 0 0
BITMAP
88
50
50
20
20
20
20
ENDCHAR
STARTCHAR omega1
ENCODING -1
SWIDTH 600 0
DWIDTH 6 0
BBX 5 5 0 0
BITMAP
F8
88
A8
A8
D8
ENDCHAR
STARTCHAR uni1E3E
ENCODING -1
SWIDTH 600 0
DWIDTH 6 0
BBX 5 10 0 0
BITMAP
10
20
00
88
88
D8
D8
D8
A8
A8
ENDCHAR
STARTCHAR uni1E3F
ENCODING -1
SWIDTH 600 0
DWIDTH 6 0
BBX 5 8 0 0
BITMAP
10
20
00
F8
A8
A8
A8
A8
ENDCHAR
STARTCHAR uni1E00
ENCODING -1
SWIDTH 600 0
DWIDTH 6 0
BBX 6 11 0 -4
BITMAP
30
30
30
48
78
84
84
00
38
28
38
ENDCHAR
STARTCHAR uni1E01
ENCODING -1
SWIDTH 600 0
DWIDTH 6 0
BBX 4 9 1 -4
BITMAP
F0
10
F0
90
F0
00
70
50
70
ENDCHAR
STARTCHAR uni1F4D
ENCODING -1
SWIDTH 600 0
DWIDTH 6 0
BBX 7 7 -1 0
BITMAP
AC
D2
12
12
12
12
0C
ENDCHAR
STARTCHAR uni02F3
ENCODING -1
SWIDTH 600 0
DWIDTH 6 0
BBX 3 3 2 -4
BITMAP
E0
A0
E0
ENDCHAR
STARTCHAR glyph601
ENCODING -1
SWIDTH 600 0
DWIDTH 6 0
BBX 3 2 1 6
BITMAP
A0
C0
ENDCHAR
STARTCHAR uniFB03
ENCODING -1
SWIDTH 600 0
DWIDTH 6 0
BBX 5 7 0 0
BITMAP
F0
A0
F8
A8
A8
A8
A8
ENDCHAR
STARTCHAR uniFB04
ENCODING -1
SWIDTH 600 0
DWIDTH 6 0
BBX 5 7 0 0
BITMAP
F8
A8
F8
A8
A8
A8
A8
ENDCHAR
STARTCHAR Ohorn
ENCODING -1
SWIDTH 600 0
DWIDTH 6 0
BBX 5 8 1 0
BITMAP
08
68
90
90
90
90
90
60
ENDCHAR
STARTCHAR ohorn
ENCODING -1
SWIDTH 600 0
DWIDTH 6 0
BBX 5 6 1 0
BITMAP
08
70
90
90
90
60
ENDCHAR
STARTCHAR Uhorn
ENCODING -1
SWIDTH 600 0
DWIDTH 6 0
BBX 6 8 1 0
BITMAP
04
94
98
90
90
90
90
60
ENDCHAR
STARTCHAR uhorn
ENCODING -1
SWIDTH 600 0
DWIDTH 6 0
BBX 5 6 1 0
BITMAP
08
98
90
90
90
F0
ENDCHAR
STARTCHAR gravecomb
ENCODING -1
SWIDTH 600 0
DWIDTH 6 0
BBX 2 2 2 6
BITMAP
80
40
ENDCHAR
STARTCHAR acutecomb
ENCODING -1
SWIDTH 600 0
DWIDTH 6 0
BBX 2 2 2 6
BITMAP
40
80
ENDCHAR
STARTCHAR tildecomb
ENCODING -1
SWIDTH 600 0
DWIDTH 6 0
BBX 4 2 1 6
BITMAP
D0
B0
ENDCHAR
STARTCHAR hookabovecomb
ENCODING -1
SWIDTH 600 0
DWIDTH 6 0
BBX 2 3 2 6
BITMAP
C0
40
80
ENDCHAR
STARTCHAR dotbelowcomb
ENCODING -1
SWIDTH 600 0
DWIDTH 6 0
BBX 1 1 2 -2
BITMAP
80
ENDCHAR
STARTCHAR uni0400
ENCODING -1
SWIDTH 600 0
DWIDTH 6 0
BBX 4 10 1 0
BITMAP
40
20
00
F0
80
80
F0
80
80
F0
ENDCHAR
STARTCHAR uni040D
ENCODING -1
SWIDTH 600 0
DWIDTH 6 0
BBX 4 10 1 0
BITMAP
40
20
00
90
90
B0
D0
D0
90
90
ENDCHAR
STARTCHAR uni0450
ENCODING -1
SWIDTH 600 0
DWIDTH 6 0
BBX 4 8 1 0
BITMAP
40
20
00
60
90
F0
80
70
ENDCHAR
STARTCHAR uni045D
ENCODING -1
SWIDTH 600 0
DWIDTH 6 0
BBX 4 8 1 0
BITMAP
40
20
00
90
B0
D0
D0
90
ENDCHAR
STARTCHAR uni0460
ENCODING -1
SWIDTH 600 0
DWIDTH 6 0
BBX 5 7 0 0
BITMAP
D8
88
88
88
A8
A8
70
ENDCHAR
STARTCHAR uni0461
ENCODING -1
SWIDTH 600 0
DWIDTH 6 0
BBX 5 5 0 0
BITMAP
A8
A8
A8
58
50
ENDCHAR
STARTCHAR uni0462
ENCODING -1
SWIDTH 600 0
DWIDTH 6 0
BBX 5 7 0 0
BITMAP
40
F0
40
70
48
48
70
ENDCHAR
STARTCHAR uni0463
ENCODING -1
SWIDTH 600 0
DWIDTH 6 0
BBX 5 6 0 0
BITMAP
40
E0
40
78
48
78
ENDCHAR
STARTCHAR uni0464
ENCODING -1
SWIDTH 600 0
DWIDTH 6 0
BBX 5 7 0 0
BITMAP
98
A0
A0
F0
A0
A0
98
ENDCHAR
STARTCHAR uni0465
ENCODING -1
SWIDTH 600 0
DWIDTH 6 0
BBX 4 5 1 0
BITMAP
B0
A0
F0
A0
B0
ENDCHAR
STARTCHAR uni0466
ENCODING -1
SWIDTH 600 0
DWIDTH 6 0
BBX 6 7 0 0
BITMAP
30
30
30
78
58
94
94
ENDCHAR
STARTCHAR uni0467
ENCODING -1
SWIDTH 600 0
DWIDTH 6 0
BBX 6 5 0 0
BITMAP
30
30
48
78
94
ENDCHAR
STARTCHAR uni0468
ENCODING -1
SWIDTH 600 0
DWIDTH 6 0
BBX 6 7 0 0
BITMAP
90
90
A8
E8
B8
D4
D4
ENDCHAR
STARTCHAR uni0469
ENCODING -1
SWIDTH 600 0
DWIDTH 6 0
BBX 6 5 0 0
BITMAP
88
98
F8
94
B4
ENDCHAR
STARTCHAR uni046A
ENCODING -1
SWIDTH 600 0
DWIDTH 6 0
BBX 6 7 0 0
BITMAP
78
48
30
78
58
94
94
ENDCHAR
STARTCHAR uni046B
ENCODING -1
SWIDTH 600 0
DWIDTH 6 0
BBX 6 5 0 0
BITMAP
78
28
78
54
94
ENDCHAR
STARTCHAR uni046C
ENCODING -1
SWIDTH 600 0
DWIDTH 6 0
BBX 6 7 0 0
BITMAP
FC
C8
A8
F8
D4
D4
D4
ENDCHAR
STARTCHAR uni046D
ENCODING -1
SWIDTH 600 0
DWIDTH 6 0
BBX 6 5 0 0
BITMAP
FC
A8
F8
D4
D4
ENDCHAR
STARTCHAR uni046E
ENCODING -1
SWIDTH 600 0
DWIDTH 6 0
BBX 4 11 1 -2
BITMAP
50
20
F0
10
10
60
10
10
60
80
F0
ENDCHAR
STARTCHAR uni046F
ENCODING -1
SWIDTH 600 0
DWIDTH 6 0
BBX 4 9 1 -2
BITMAP
90
60
F0
10
60
10
70
80
F0
ENDCHAR
STARTCHAR uni0470
ENCODING -1
SWIDTH 600 0
DWIDTH 6 0
BBX 5 7 0 0
BITMAP
A8
A8
A8
A8
70
20
20
ENDCHAR
STARTCHAR uni0471
ENCODING -1
SWIDTH 600 0
DWIDTH 6 0
BBX 5 9 0 -2
BITMAP
20
20
A8
A8
A8
A8
70
20
20
ENDCHAR
STARTCHAR uni0472
ENCODING -1
SWIDTH 600 0
DWIDTH 6 0
BBX 5 7 0 0
BITMAP
70
88
88
F8
88
88
70
ENDCHAR
STARTCHAR uni0473
ENCODING -1
SWIDTH 600 0
DWIDTH 6 0
BBX 4 5 1 0
BITMAP
60
90
F0
90
60
ENDCHAR
STARTCHAR uni0474
ENCODING -1
SWIDTH 600 0
DWIDTH 6 0
BBX 6 7 0 0
BITMAP
8C
88
48
50
50
30
20
ENDCHAR
STARTCHAR uni0475
ENCODING -1
SWIDTH 600 0
DWIDTH 6 0
BBX 6 5 0 0
BITMAP
8C
48
50
30
30
ENDCHAR
STARTCHAR uni0476
ENCODING -1
SWIDTH 600 0
DWIDTH 6 0
BBX 6 10 0 0
BITMAP
50
28
00
8C
88
48
50
50
30
20
ENDCHAR
STARTCHAR uni0477
ENCODING -1
SWIDTH 600 0
DWIDTH 6 0
BBX 6 8 0 0
BITMAP
50
28
00
8C
48
50
30
30
ENDCHAR
STARTCHAR uni0478
ENCODING -1
SWIDTH 600 0
DWIDTH 6 0
BBX 6 9 0 -2
BITMAP
E0
A0
B4
B4
B4
A8
E8
08
10
ENDCHAR
STARTCHAR uni0479
ENCODING -1
SWIDTH 600 0
DWIDTH 6 0
BBX 6 7 0 -2
BITMAP
F4
B4
B4
A8
E8
08
10
ENDCHAR
STARTCHAR uni047A
ENCODING -1
SWIDTH 600 0
DWIDTH 6 0
BBX 4 9 1 -1
BITMAP
40
60
90
90
90
90
90
60
40
ENDCHAR
STARTCHAR uni047B
ENCODING -1
SWIDTH 600 0
DWIDTH 6 0
BBX 4 7 1 -1
BITMAP
40
60
90
90
90
60
40
ENDCHAR
STARTCHAR uni047C
ENCODING -1
SWIDTH 600 0
DWIDTH 6 0
BBX 5 10 0 0
BITMAP
70
20
20
D8
88
88
88
88
88
70
ENDCHAR
STARTCHAR uni047D
ENCODING -1
SWIDTH 600 0
DWIDTH 6 0
BBX 5 9 0 0
BITMAP
70
20
20
00
D8
88
88
88
F0
ENDCHAR
STARTCHAR uni047E
ENCODING -1
SWIDTH 600 0
DWIDTH 6 0
BBX 5 10 0 0
BITMAP
F8
A8
00
D8
88
88
88
A8
A8
70
ENDCHAR
STARTCHAR uni047F
ENCODING -1
SWIDTH 600 0
DWIDTH 6 0
BBX 5 8 0 0
BITMAP
70
70
00
A8
A8
68
58
50
ENDCHAR
STARTCHAR uni0480
ENCODING -1
SWIDTH 600 0
DWIDTH 6 0
BBX 5 9 1 -2
BITMAP
78
C0
80
80
80
80
70
10
10
ENDCHAR
STARTCHAR uni0481
ENCODING -1
SWIDTH 600 0
DWIDTH 6 0
BBX 4 7 1 -2
BITMAP
70
80
80
80
60
20
20
ENDCHAR
STARTCHAR uni0482
ENCODING -1
SWIDTH 600 0
DWIDTH 6 0
BBX 5 6 0 0
BITMAP
10
10
78
20
F0
40
ENDCHAR
STARTCHAR uni0483
ENCODING -1
SWIDTH 600 0
DWIDTH 6 0
BBX 4 3 1 6
BITMAP
10
F0
80
ENDCHAR
STARTCHAR uni0484
ENCODING -1
SWIDTH 600 0
DWIDTH 6 0
BBX 4 2 1 6
BITMAP
30
D0
ENDCHAR
STARTCHAR uni0485
ENCODING -1
SWIDTH 600 0
DWIDTH 6 0
BBX 2 2 2 6
BITMAP
80
C0
ENDCHAR
STARTCHAR uni0486
ENCODING -1
SWIDTH 600 0
DWIDTH 6 0
BBX 2 2 2 6
BITMAP
40
C0
ENDCHAR
STARTCHAR uni0488
ENCODING -1
SWIDTH 600 0
DWIDTH 6 0
BBX 6 3 0 0
BITMAP
CC
48
30
ENDCHAR
STARTCHAR uni0489
ENCODING -1
SWIDTH 600 0
DWIDTH 6 0
BBX 6 5 0 0
BITMAP
10
48
84
48
10
ENDCHAR
STARTCHAR uni048A
ENCODING -1
SWIDTH 600 0
DWIDTH 6 0
BBX 5 12 1 -2
BITMAP
90
E0
00
90
B0
B0
D0
D0
D0
98
08
10
ENDCHAR
STARTCHAR uni048B
ENCODING -1
SWIDTH 600 0
DWIDTH 6 0
BBX 5 10 1 -2
BITMAP
90
E0
00
90
B0
B0
D0
98
08
10
ENDCHAR
STARTCHAR uni048C
ENCODING -1
SWIDTH 600 0
DWIDTH 6 0
BBX 5 7 0 0
BITMAP
40
E0
40
70
48
48
70
ENDCHAR
STARTCHAR uni048D
ENCODING -1
SWIDTH 600 0
DWIDTH 6 0
BBX 5 7 0 0
BITMAP
40
E0
40
40
78
48
78
ENDCHAR
STARTCHAR uni048E
ENCODING -1
SWIDTH 600 0
DWIDTH 6 0
BBX 4 7 1 0
BITMAP
E0
90
90
B0
E0
A0
80
ENDCHAR
STARTCHAR uni048F
ENCODING -1
SWIDTH 600 0
DWIDTH 6 0
BBX 4 7 1 -2
BITMAP
E0
90
90
B0
F0
90
80
ENDCHAR
STARTCHAR uni0492
ENCODING -1
SWIDTH 600 0
DWIDTH 6 0
BBX 5 7 0 0
BITMAP
78
40
40
F0
40
40
40
ENDCHAR
STARTCHAR uni0493
ENCODING -1
SWIDTH 600 0
DWIDTH 6 0
BBX 5 5 0 0
BITMAP
78
40
E0
40
40
ENDCHAR
STARTCHAR uni0494
ENCODING -1
SWIDTH 600 0
DWIDTH 6 0
BBX 4 10 1 -3
BITMAP
E0
80
80
E0
90
90
90
10
10
60
ENDCHAR
STARTCHAR uni0495
ENCODING -1
SWIDTH 600 0
DWIDTH 6 0
BBX 4 7 1 -2
BITMAP
E0
80
E0
90
90
10
60
ENDCHAR
STARTCHAR uni0496
ENCODING -1
SWIDTH 600 0
DWIDTH 6 0
BBX 6 9 0 -2
BITMAP
A8
B0
70
70
70
A8
AC
04
04
ENDCHAR
STARTCHAR uni0497
ENCODING -1
SWIDTH 600 0
DWIDTH 6 0
BBX 5 7 0 -2
BITMAP
A8
70
70
70
A8
08
08
ENDCHAR
STARTCHAR uni0498
ENCODING -1
SWIDTH 600 0
DWIDTH 6 0
BBX 4 9 1 -2
BITMAP
F0
10
10
60
10
10
E0
20
60
ENDCHAR
STARTCHAR uni0499
ENCODING -1
SWIDTH 600 0
DWIDTH 6 0
BBX 4 7 1 -2
BITMAP
F0
10
60
10
F0
20
60
ENDCHAR
STARTCHAR uni049A
ENCODING -1
SWIDTH 600 0
DWIDTH 6 0
BBX 5 9 1 -2
BITMAP
88
90
A0
C0
A0
B0
98
08
08
ENDCHAR
STARTCHAR uni049B
ENCODING -1
SWIDTH 600 0
DWIDTH 6 0
BBX 5 7 1 -2
BITMAP
90
A0
C0
A0
98
08
08
ENDCHAR
STARTCHAR uni049C
ENCODING -1
SWIDTH 600 0
DWIDTH 6 0
BBX 4 7 1 0
BITMAP
90
A0
A0
C0
A0
D0
90
ENDCHAR
STARTCHAR uni049D
ENCODING -1
SWIDTH 600 0
DWIDTH 6 0
BBX 5 5 1 0
BITMAP
B0
A0
E0
B0
A8
ENDCHAR
STARTCHAR uni049E
ENCODING -1
SWIDTH 600 0
DWIDTH 6 0
BBX 5 7 0 0
BITMAP
48
F0
60
60
50
50
48
ENDCHAR
STARTCHAR uni049F
ENCODING -1
SWIDTH 600 0
DWIDTH 6 0
BBX 6 7 0 0
BITMAP
40
F0
48
50
70
48
44
ENDCHAR
STARTCHAR uni04A0
ENCODING -1
SWIDTH 600 0
DWIDTH 6 0
BBX 6 7 0 0
BITMAP
E4
28
28
30
28
28
24
ENDCHAR
STARTCHAR uni04A1
ENCODING -1
SWIDTH 600 0
DWIDTH 6 0
BBX 6 5 0 0
BITMAP
E4
28
30
28
24
ENDCHAR
STARTCHAR uni04A2
ENCODING -1
SWIDTH 600 0
DWIDTH 6 0
BBX 5 9 1 -2
BITMAP
90
90
90
F0
90
90
98
08
08
ENDCHAR
STARTCHAR uni04A3
ENCODING -1
SWIDTH 600 0
DWIDTH 6 0
BBX 5 7 1 -2
BITMAP
90
90
F0
90
98
08
08
ENDCHAR
STARTCHAR uni04A4
ENCODING -1
SWIDTH 600 0
DWIDTH 6 0
BBX 5 7 1 0
BITMAP
98
90
90
F0
90
90
90
ENDCHAR
STARTCHAR uni04A5
ENCODING -1
SWIDTH 600 0
DWIDTH 6 0
BBX 5 5 1 0
BITMAP
98
90
F0
90
90
ENDCHAR
STARTCHAR uni04A6
ENCODING -1
SWIDTH 600 0
DWIDTH 6 0
BBX 5 10 1 -3
BITMAP
E0
A0
A0
B0
A8
A8
A8
08
08
30
ENDCHAR
STARTCHAR uni04A7
ENCODING -1
SWIDTH 600 0
DWIDTH 6 0
BBX 5 7 1 -2
BITMAP
E0
A0
B8
A8
A8
08
30
ENDCHAR
STARTCHAR uni04A8
ENCODING -1
SWIDTH 600 0
DWIDTH 6 0
BBX 5 8 1 -1
BITMAP
60
80
B8
A8
A8
A8
70
08
ENDCHAR
STARTCHAR uni04A9
ENCODING -1
SWIDTH 600 0
DWIDTH 6 0
BBX 5 5 0 0
BITMAP
60
80
B8
A8
78
ENDCHAR
STARTCHAR uni04AA
ENCODING -1
SWIDTH 600 0
DWIDTH 6 0
BBX 4 9 1 -2
BITMAP
70
80
80
80
80
80
70
10
30
ENDCHAR
STARTCHAR uni04AB
ENCODING -1
SWIDTH 600 0
DWIDTH 6 0
BBX 4 7 1 -2
BITMAP
70
80
80
80
70
10
30
ENDCHAR
STARTCHAR uni04AC
ENCODING -1
SWIDTH 600 0
DWIDTH 6 0
BBX 5 9 0 -2
BITMAP
F8
20
20
20
20
20
30
10
10
ENDCHAR
STARTCHAR uni04AD
ENCODING -1
SWIDTH 600 0
DWIDTH 6 0
BBX 5 7 0 -2
BITMAP
F8
20
20
20
30
10
10
ENDCHAR
STARTCHAR uni04AE
ENCODING -1
SWIDTH 600 0
DWIDTH 6 0
BBX 5 7 0 0
BITMAP
88
50
50
20
20
20
20
ENDCHAR
STARTCHAR uni04AF
ENCODING -1
SWIDTH 600 0
DWIDTH 6 0
BBX 5 7 0 -2
BITMAP
88
50
50
50
20
20
20
ENDCHAR
STARTCHAR uni04B0
ENCODING -1
SWIDTH 600 0
DWIDTH 6 0
BBX 5 7 0 0
BITMAP
88
50
50
50
20
70
20
ENDCHAR
STARTCHAR uni04B1
ENCODING -1
SWIDTH 600 0
DWIDTH 6 0
BBX 5 7 0 -2
BITMAP
88
50
50
50
20
70
20
ENDCHAR
STARTCHAR uni04B2
ENCODING -1
SWIDTH 600 0
DWIDTH 6 0
BBX 6 9 0 -2
BITMAP
84
48
30
30
30
48
84
04
04
ENDCHAR
STARTCHAR uni04B3
ENCODING -1
SWIDTH 600 0
DWIDTH 6 0
BBX 5 7 1 -2
BITMAP
88
50
20
50
98
08
08
ENDCHAR
STARTCHAR uni04B4
ENCODING -1
SWIDTH 600 0
DWIDTH 6 0
BBX 6 9 0 -2
BITMAP
E8
48
48
48
48
48
7C
04
04
ENDCHAR
STARTCHAR uni04B5
ENCODING -1
SWIDTH 600 0
DWIDTH 6 0
BBX 6 7 0 -2
BITMAP
E8
48
48
48
7C
04
04
ENDCHAR
STARTCHAR uni04B6
ENCODING -1
SWIDTH 600 0
DWIDTH 6 0
BBX 5 9 1 -2
BITMAP
90
90
90
90
F0
10
18
08
08
ENDCHAR
STARTCHAR uni04B7
ENCODING -1
SWIDTH 600 0
DWIDTH 6 0
BBX 5 7 1 -2
BITMAP
90
90
F0
10
18
08
08
ENDCHAR
STARTCHAR uni04B8
ENCODING -1
SWIDTH 600 0
DWIDTH 6 0
BBX 5 7 0 0
BITMAP
88
88
A8
A8
F8
28
08
ENDCHAR
STARTCHAR uni04B9
ENCODING -1
SWIDTH 600 0
DWIDTH 6 0
BBX 5 5 0 0
BITMAP
88
A8
F8
28
08
ENDCHAR
STARTCHAR uni04BA
ENCODING -1
SWIDTH 600 0
DWIDTH 6 0
BBX 4 7 1 0
BITMAP
80
80
F0
90
90
90
90
ENDCHAR
STARTCHAR uni04BB
ENCODING -1
SWIDTH 600 0
DWIDTH 6 0
BBX 4 5 1 0
BITMAP
80
80
F0
90
90
ENDCHAR
STARTCHAR uni04BC
ENCODING -1
SWIDTH 600 0
DWIDTH 6 0
BBX 5 7 0 0
BITMAP
18
28
A8
F8
20
20
18
ENDCHAR
STARTCHAR uni04BD
ENCODING -1
SWIDTH 600 0
DWIDTH 6 0
BBX 5 5 0 0
BITMAP
18
A8
78
20
18
ENDCHAR
STARTCHAR uni04BE
ENCODING -1
SWIDTH 600 0
DWIDTH 6 0
BBX 5 9 0 -2
BITMAP
18
28
A8
F8
20
20
18
10
10
ENDCHAR
STARTCHAR uni04BF
ENCODING -1
SWIDTH 600 0
DWIDTH 6 0
BBX 5 7 0 -2
BITMAP
18
A8
78
20
38
10
10
ENDCHAR
STARTCHAR uni04C0
ENCODING -1
SWIDTH 600 0
DWIDTH 6 0
BBX 3 7 1 0
BITMAP
E0
40
40
40
40
40
E0
ENDCHAR
STARTCHAR uni04C1
ENCODING -1
SWIDTH 600 0
DWIDTH 6 0
BBX 5 10 0 0
BITMAP
48
70
00
A8
A8
70
20
70
A8
A8
ENDCHAR
STARTCHAR uni04C2
ENCODING -1
SWIDTH 600 0
DWIDTH 6 0
BBX 5 8 0 0
BITMAP
48
70
00
A8
70
20
70
A8
ENDCHAR
STARTCHAR uni04C3
ENCODING -1
SWIDTH 600 0
DWIDTH 6 0
BBX 4 10 1 -3
BITMAP
90
A0
C0
E0
90
90
90
10
10
60
ENDCHAR
STARTCHAR uni04C4
ENCODING -1
SWIDTH 600 0
DWIDTH 6 0
BBX 4 7 1 -2
BITMAP
90
A0
E0
90
90
10
60
ENDCHAR
STARTCHAR uni04C5
ENCODING -1
SWIDTH 600 0
DWIDTH 6 0
BBX 6 9 0 -2
BITMAP
38
28
28
48
48
48
CC
04
08
ENDCHAR
STARTCHAR uni04C6
ENCODING -1
SWIDTH 600 0
DWIDTH 6 0
BBX 6 7 0 -2
BITMAP
38
28
28
48
CC
04
08
ENDCHAR
STARTCHAR uni04C7
ENCODING -1
SWIDTH 600 0
DWIDTH 6 0
BBX 4 10 1 -3
BITMAP
90
90
90
F0
90
90
90
10
10
60
ENDCHAR
STARTCHAR uni04C8
ENCODING -1
SWIDTH 600 0
DWIDTH 6 0
BBX 4 7 1 -2
BITMAP
90
90
F0
90
90
10
60
ENDCHAR
STARTCHAR uni04C9
ENCODING -1
SWIDTH 600 0
DWIDTH 6 0
BBX 5 9 1 -2
BITMAP
90
90
90
F0
90
90
98
08
10
ENDCHAR
STARTCHAR uni04CA
ENCODING -1
SWIDTH 600 0
DWIDTH 6 0
BBX 5 7 1 -2
BITMAP
90
90
F0
90
98
08
10
ENDCHAR
STARTCHAR uni04CB
ENCODING -1
SWIDTH 600 0
DWIDTH 6 0
BBX 4 9 1 -2
BITMAP
90
90
90
90
70
10
30
20
20
ENDCHAR
STARTCHAR uni04CC
ENCODING -1
SWIDTH 600 0
DWIDTH 6 0
BBX 4 7 1 -2
BITMAP
90
90
70
10
30
20
20
ENDCHAR
STARTCHAR uni04CD
ENCODING -1
SWIDTH 600 0
DWIDTH 6 0
BBX 6 9 0 -2
BITMAP
88
88
D8
D8
D8
A8
AC
04
08
ENDCHAR
STARTCHAR uni04CE
ENCODING -1
SWIDTH 600 0
DWIDTH 6 0
BBX 6 7 0 -2
BITMAP
88
88
D8
D8
AC
04
08
ENDCHAR
STARTCHAR uni04CF
ENCODING -1
SWIDTH 600 0
DWIDTH 6 0
BBX 3 7 1 0
BITMAP
E0
40
40
40
40
40
E0
ENDCHAR
STARTCHAR uni04D0
ENCODING -1
SWIDTH 600 0
DWIDTH 6 0
BBX 6 10 0 0
BITMAP
48
70
00
30
30
30
48
78
84
84
ENDCHAR
STARTCHAR uni04D1
ENCODING -1
SWIDTH 600 0
DWIDTH 6 0
BBX 4 8 1 0
BITMAP
90
E0
00
F0
10
F0
90
F0
ENDCHAR
STARTCHAR uni04D2
ENCODING -1
SWIDTH 600 0
DWIDTH 6 0
BBX 6 9 0 0
BITMAP
28
00
30
30
30
48
78
84
84
ENDCHAR
STARTCHAR uni04D3
ENCODING -1
SWIDTH 600 0
DWIDTH 6 0
BBX 4 7 1 0
BITMAP
50
00
F0
10
F0
90
F0
ENDCHAR
STARTCHAR uni04D4
ENCODING -1
SWIDTH 600 0
DWIDTH 6 0
BBX 5 7 0 0
BITMAP
78
60
A0
B8
E0
A0
B8
ENDCHAR
STARTCHAR uni04D5
ENCODING -1
SWIDTH 600 0
DWIDTH 6 0
BBX 6 5 0 0
BITMAP
D8
24
FC
A0
DC
ENDCHAR
STARTCHAR uni04D6
ENCODING -1
SWIDTH 600 0
DWIDTH 6 0
BBX 4 10 1 0
BITMAP
90
E0
00
F0
80
80
F0
80
80
F0
ENDCHAR
STARTCHAR uni04D7
ENCODING -1
SWIDTH 600 0
DWIDTH 6 0
BBX 4 8 1 0
BITMAP
90
E0
00
60
90
F0
80
70
ENDCHAR
STARTCHAR uni04D8
ENCODING -1
SWIDTH 600 0
DWIDTH 6 0
BBX 4 7 1 0
BITMAP
E0
10
10
F0
90
90
60
ENDCHAR
STARTCHAR uni04D9
ENCODING -1
SWIDTH 600 0
DWIDTH 6 0
BBX 4 5 1 0
BITMAP
E0
10
F0
90
60
ENDCHAR
STARTCHAR uni04DA
ENCODING -1
SWIDTH 600 0
DWIDTH 6 0
BBX 4 9 1 0
BITMAP
50
00
E0
10
10
F0
90
90
60
ENDCHAR
STARTCHAR uni04DB
ENCODING -1
SWIDTH 600 0
DWIDTH 6 0
BBX 4 7 1 0
BITMAP
50
00
E0
10
F0
90
60
ENDCHAR
STARTCHAR uni04DC
ENCODING -1
SWIDTH 600 0
DWIDTH 6 0
BBX 5 9 0 0
BITMAP
50
00
A8
A8
70
20
70
A8
A8
ENDCHAR
STARTCHAR uni04DD
ENCODING -1
SWIDTH 600 0
DWIDTH 6 0
BBX 5 7 0 0
BITMAP
50
00
A8
70
20
70
A8
ENDCHAR
STARTCHAR uni04DE
ENCODING -1
SWIDTH 600 0
DWIDTH 6 0
BBX 4 9 1 0
BITMAP
50
00
F0
10
10
60
10
10
E0
ENDCHAR
STARTCHAR uni04DF
ENCODING -1
SWIDTH 600 0
DWIDTH 6 0
BBX 4 7 1 0
BITMAP
50
00
F0
10
60
10
F0
ENDCHAR
STARTCHAR uni04E0
ENCODING -1
SWIDTH 600 0
DWIDTH 6 0
BBX 4 7 1 0
BITMAP
F0
20
20
60
10
10
E0
ENDCHAR
STARTCHAR uni04E1
ENCODING -1
SWIDTH 600 0
DWIDTH 6 0
BBX 4 7 1 -2
BITMAP
F0
20
60
10
10
10
E0
ENDCHAR
STARTCHAR uni04E2
ENCODING -1
SWIDTH 600 0
DWIDTH 6 0
BBX 4 9 1 0
BITMAP
F0
00
90
90
B0
D0
D0
90
90
ENDCHAR
STARTCHAR uni04E3
ENCODING -1
SWIDTH 600 0
DWIDTH 6 0
BBX 4 7 1 0
BITMAP
F0
00
90
B0
D0
D0
90
ENDCHAR
STARTCHAR uni04E4
ENCODING -1
SWIDTH 600 0
DWIDTH 6 0
BBX 4 9 1 0
BITMAP
50
00
90
90
B0
D0
D0
90
90
ENDCHAR
STARTCHAR uni04E5
ENCODING -1
SWIDTH 600 0
DWIDTH 6 0
BBX 4 7 1 0
BITMAP
50
00
90
B0
D0
D0
90
ENDCHAR
STARTCHAR uni04E6
ENCODING -1
SWIDTH 600 0
DWIDTH 6 0
BBX 4 9 1 0
BITMAP
50
00
60
90
90
90
90
90
60
ENDCHAR
STARTCHAR uni04E7
ENCODING -1
SWIDTH 600 0
DWIDTH 6 0
BBX 4 7 1 0
BITMAP
50
00
60
90
90
90
60
ENDCHAR
STARTCHAR uni04E8
ENCODING -1
SWIDTH 600 0
DWIDTH 6 0
BBX 5 7 0 0
BITMAP
70
88
88
F8
88
88
70
ENDCHAR
STARTCHAR uni04E9
ENCODING -1
SWIDTH 600 0
DWIDTH 6 0
BBX 4 5 1 0
BITMAP
60
90
F0
90
60
ENDCHAR
STARTCHAR uni04EA
ENCODING -1
SWIDTH 600 0
DWIDTH 6 0
BBX 5 9 0 0
BITMAP
50
00
70
88
88
F8
88
88
70
ENDCHAR
STARTCHAR uni04EB
ENCODING -1
SWIDTH 600 0
DWIDTH 6 0
BBX 4 7 1 0
BITMAP
50
00
60
90
F0
90
60
ENDCHAR
STARTCHAR uni04EC
ENCODING -1
SWIDTH 600 0
DWIDTH 6 0
BBX 4 9 1 0
BITMAP
A0
00
E0
10
10
70
10
10
E0
ENDCHAR
STARTCHAR uni04ED
ENCODING -1
SWIDTH 600 0
DWIDTH 6 0
BBX 4 7 1 0
BITMAP
A0
00
E0
10
70
10
E0
ENDCHAR
STARTCHAR uni04EE
ENCODING -1
SWIDTH 600 0
DWIDTH 6 0
BBX 5 9 1 0
BITMAP
78
00
88
88
50
50
20
20
C0
ENDCHAR
STARTCHAR uni04EF
ENCODING -1
SWIDTH 600 0
DWIDTH 6 0
BBX 4 9 1 -2
BITMAP
F0
00
90
90
60
60
20
40
C0
ENDCHAR
STARTCHAR uni04F0
ENCODING -1
SWIDTH 600 0
DWIDTH 6 0
BBX 5 9 1 0
BITMAP
50
00
88
88
50
50
20
20
C0
ENDCHAR
STARTCHAR uni04F1
ENCODING -1
SWIDTH 600 0
DWIDTH 6 0
BBX 4 9 1 -2
BITMAP
50
00
90
90
60
60
20
40
C0
ENDCHAR
STARTCHAR uni04F2
ENCODING -1
SWIDTH 600 0
DWIDTH 6 0
BBX 5 10 1 0
BITMAP
28
50
00
88
88
50
50
20
20
C0
ENDCHAR
STARTCHAR uni04F3
ENCODING -1
SWIDTH 600 0
DWIDTH 6 0
BBX 5 10 1 -2
BITMAP
28
50
00
90
90
60
60
20
40
C0
ENDCHAR
STARTCHAR uni04F4
ENCODING -1
SWIDTH 600 0
DWIDTH 6 0
BBX 4 9 1 0
BITMAP
50
00
90
90
90
90
F0
10
10
ENDCHAR
STARTCHAR uni04F5
ENCODING -1
SWIDTH 600 0
DWIDTH 6 0
BBX 4 7 1 0
BITMAP
50
00
90
90
F0
10
10
ENDCHAR
STARTCHAR uni04F6
ENCODING -1
SWIDTH 600 0
DWIDTH 6 0
BBX 4 9 1 -2
BITMAP
F0
80
80
80
80
80
C0
40
40
ENDCHAR
STARTCHAR uni04F7
ENCODING -1
SWIDTH 600 0
DWIDTH 6 0
BBX 4 7 1 -2
BITMAP
F0
80
80
80
C0
40
40
ENDCHAR
STARTCHAR uni04F8
ENCODING -1
SWIDTH 600 0
DWIDTH 6 0
BBX 5 9 0 0
BITMAP
50
00
88
88
88
E8
A8
A8
C8
ENDCHAR
STARTCHAR uni04F9
ENCODING -1
SWIDTH 600 0
DWIDTH 6 0
BBX 5 7 0 0
BITMAP
50
00
88
88
E8
A8
E8
ENDCHAR
STARTCHAR uni04FA
ENCODING -1
SWIDTH 600 0
DWIDTH 6 0
BBX 5 9 0 -2
BITMAP
78
40
40
F0
40
40
60
20
60
ENDCHAR
STARTCHAR uni04FB
ENCODING -1
SWIDTH 600 0
DWIDTH 6 0
BBX 5 7 0 -2
BITMAP
78
40
E0
40
60
20
60
ENDCHAR
STARTCHAR uni04FC
ENCODING -1
SWIDTH 600 0
DWIDTH 6 0
BBX 6 9 0 -2
BITMAP
84
48
30
20
30
48
84
04
0C
ENDCHAR
STARTCHAR uni04FD
ENCODING -1
SWIDTH 600 0
DWIDTH 6 0
BBX 4 7 1 -2
BITMAP
90
60
40
60
90
10
30
ENDCHAR
STARTCHAR uni04FE
ENCODING -1
SWIDTH 600 0
DWIDTH 6 0
BBX 6 7 0 0
BITMAP
84
48
30
FC
30
48
84
ENDCHAR
STARTCHAR uni04FF
ENCODING -1
SWIDTH 600 0
DWIDTH 6 0
BBX 4 5 1 0
BITMAP
90
60
F0
60
90
ENDCHAR
STARTCHAR uni0500
ENCODING -1
SWIDTH 600 0
DWIDTH 6 0
BBX 4 7 1 0
BITMAP
10
10
10
70
90
90
70
ENDCHAR
STARTCHAR uni0501
ENCODING -1
SWIDTH 600 0
DWIDTH 6 0
BBX 4 7 1 0
BITMAP
10
10
70
90
90
90
70
ENDCHAR
STARTCHAR uni0502
ENCODING -1
SWIDTH 600 0
DWIDTH 6 0
BBX 5 7 0 0
BITMAP
20
20
20
E8
A8
A8
D8
ENDCHAR
STARTCHAR uni0503
ENCODING -1
SWIDTH 600 0
DWIDTH 6 0
BBX 5 7 0 0
BITMAP
20
20
E0
A0
A8
A8
D8
ENDCHAR
STARTCHAR uni0504
ENCODING -1
SWIDTH 600 0
DWIDTH 6 0
BBX 5 7 0 0
BITMAP
E0
20
20
48
28
28
38
ENDCHAR
STARTCHAR uni0505
ENCODING -1
SWIDTH 600 0
DWIDTH 6 0
BBX 5 5 0 0
BITMAP
E0
20
48
28
38
ENDCHAR
STARTCHAR uni0506
ENCODING -1
SWIDTH 600 0
DWIDTH 6 0
BBX 6 9 0 -2
BITMAP
F0
08
08
70
08
08
0C
04
04
ENDCHAR
STARTCHAR uni0507
ENCODING -1
SWIDTH 600 0
DWIDTH 6 0
BBX 5 7 0 -2
BITMAP
F0
10
60
10
18
08
08
ENDCHAR
STARTCHAR uni0508
ENCODING -1
SWIDTH 600 0
DWIDTH 6 0
BBX 5 7 0 0
BITMAP
E0
A0
A0
A8
A8
A8
B8
ENDCHAR
STARTCHAR uni0509
ENCODING -1
SWIDTH 600 0
DWIDTH 6 0
BBX 5 5 0 0
BITMAP
E0
A0
A8
A8
B8
ENDCHAR
STARTCHAR uni050A
ENCODING -1
SWIDTH 600 0
DWIDTH 6 0
BBX 5 7 0 0
BITMAP
A0
A0
A0
E8
A8
A8
B8
ENDCHAR
STARTCHAR uni050B
ENCODING -1
SWIDTH 600 0
DWIDTH 6 0
BBX 5 5 0 0
BITMAP
A0
A0
E8
A8
B8
ENDCHAR
STARTCHAR uni050C
ENCODING -1
SWIDTH 600 0
DWIDTH 6 0
BBX 4 7 1 0
BITMAP
70
80
80
B0
90
90
60
ENDCHAR
STARTCHAR uni050D
ENCODING -1
SWIDTH 600 0
DWIDTH 6 0
BBX 4 5 1 0
BITMAP
70
80
B0
90
60
ENDCHAR
STARTCHAR uni050E
ENCODING -1
SWIDTH 600 0
DWIDTH 6 0
BBX 5 7 0 0
BITMAP
F8
20
20
28
28
28
38
ENDCHAR
STARTCHAR uni050F
ENCODING -1
SWIDTH 600 0
DWIDTH 6 0
BBX 5 5 0 0
BITMAP
E0
40
48
48
78
ENDCHAR
STARTCHAR uni0510
ENCODING -1
SWIDTH 600 0
DWIDTH 6 0
BBX 4 7 1 0
BITMAP
70
80
80
60
80
80
70
ENDCHAR
STARTCHAR uni0511
ENCODING -1
SWIDTH 600 0
DWIDTH 6 0
BBX 4 5 1 0
BITMAP
F0
80
60
80
F0
ENDCHAR
STARTCHAR uni0512
ENCODING -1
SWIDTH 600 0
DWIDTH 6 0
BBX 5 7 0 0
BITMAP
78
48
48
48
48
48
88
ENDCHAR
STARTCHAR uni0513
ENCODING -1
SWIDTH 600 0
DWIDTH 6 0
BBX 5 5 0 0
BITMAP
78
48
48
48
88
ENDCHAR
STARTCHAR uni1EA0
ENCODING -1
SWIDTH 600 0
DWIDTH 6 0
BBX 6 9 0 -2
BITMAP
30
30
30
48
78
84
84
00
10
ENDCHAR
STARTCHAR uni1EA1
ENCODING -1
SWIDTH 600 0
DWIDTH 6 0
BBX 4 7 1 -2
BITMAP
F0
10
F0
90
F0
00
20
ENDCHAR
STARTCHAR uni1EA2
ENCODING -1
SWIDTH 600 0
DWIDTH 6 0
BBX 6 11 0 0
BITMAP
30
10
20
00
30
30
30
48
78
84
84
ENDCHAR
STARTCHAR uni1EA3
ENCODING -1
SWIDTH 600 0
DWIDTH 6 0
BBX 4 9 1 0
BITMAP
30
10
20
00
F0
10
F0
90
F0
ENDCHAR
STARTCHAR uni1EA4
ENCODING -1
SWIDTH 600 0
DWIDTH 6 0
BBX 6 11 0 0
BITMAP
04
28
50
00
30
30
30
48
78
84
84
ENDCHAR
STARTCHAR uni1EA5
ENCODING -1
SWIDTH 600 0
DWIDTH 6 0
BBX 5 9 1 0
BITMAP
08
50
A0
00
F0
10
F0
90
F0
ENDCHAR
STARTCHAR uni1EA6
ENCODING -1
SWIDTH 600 0
DWIDTH 6 0
BBX 6 11 0 0
BITMAP
80
50
28
00
30
30
30
48
78
84
84
ENDCHAR
STARTCHAR uni1EA7
ENCODING -1
SWIDTH 600 0
DWIDTH 6 0
BBX 5 9 0 0
BITMAP
80
50
28
00
78
08
78
48
78
ENDCHAR
STARTCHAR uni1EA8
ENCODING -1
SWIDTH 600 0
DWIDTH 6 0
BBX 6 11 0 0
BITMAP
0C
24
50
00
30
30
30
48
78
84
84
ENDCHAR
STARTCHAR uni1EA9
ENCODING -1
SWIDTH 600 0
DWIDTH 6 0
BBX 5 9 1 0
BITMAP
18
48
A0
00
F0
10
F0
90
F0
ENDCHAR
STARTCHAR uni1EAA
ENCODING -1
SWIDTH 600 0
DWIDTH 6 0
BBX 6 12 0 0
BITMAP
68
58
30
48
00
30
30
30
48
78
84
84
ENDCHAR
STARTCHAR uni1EAB
ENCODING -1
SWIDTH 600 0
DWIDTH 6 0
BBX 4 10 1 0
BITMAP
D0
B0
60
90
00
F0
10
F0
90
F0
ENDCHAR
STARTCHAR uni1EAC
ENCODING -1
SWIDTH 600 0
DWIDTH 6 0
BBX 6 12 0 -2
BITMAP
10
28
00
30
30
30
48
78
84
84
00
10
ENDCHAR
STARTCHAR uni1EAD
ENCODING -1
SWIDTH 600 0
DWIDTH 6 0
BBX 4 10 1 -2
BITMAP
20
50
00
F0
10
F0
90
F0
00
20
ENDCHAR
STARTCHAR uni1EAE
ENCODING -1
SWIDTH 600 0
DWIDTH 6 0
BBX 6 12 0 0
BITMAP
08
10
28
38
00
30
30
30
48
78
84
84
ENDCHAR
STARTCHAR uni1EAF
ENCODING -1
SWIDTH 600 0
DWIDTH 6 0
BBX 4 10 1 0
BITMAP
10
20
50
70
00
F0
10
F0
90
F0
ENDCHAR
STARTCHAR uni1EB0
ENCODING -1
SWIDTH 600 0
DWIDTH 6 0
BBX 6 12 0 0
BITMAP
20
10
28
38
00
30
30
30
48
78
84
84
ENDCHAR
STARTCHAR uni1EB1
ENCODING -1
SWIDTH 600 0
DWIDTH 6 0
BBX 4 10 1 0
BITMAP
40
20
50
70
00
F0
10
F0
90
F0
ENDCHAR
STARTCHAR uni1EB2
ENCODING -1
SWIDTH 600 0
DWIDTH 6 0
BBX 6 12 0 0
BITMAP
08
08
28
38
00
30
30
30
48
78
84
84
ENDCHAR
STARTCHAR uni1EB3
ENCODING -1
SWIDTH 600 0
DWIDTH 6 0
BBX 4 10 1 0
BITMAP
10
10
50
70
00
F0
10
F0
90
F0
ENDCHAR
STARTCHAR uni1EB4
ENCODING -1
SWIDTH 600 0
DWIDTH 6 0
BBX 6 12 0 0
BITMAP
38
38
28
38
00
30
30
30
48
78
84
84
ENDCHAR
STARTCHAR uni1EB5
ENCODING -1
SWIDTH 600 0
DWIDTH 6 0
BBX 4 10 1 0
BITMAP
70
70
50
70
00
F0
10
F0
90
F0
ENDCHAR
STARTCHAR uni1EB6
ENCODING -1
SWIDTH 600 0
DWIDTH 6 0
BBX 6 12 0 -2
BITMAP
48
30
00
30
30
30
48
78
84
84
00
10
ENDCHAR
STARTCHAR uni1EB7
ENCODING -1
SWIDTH 600 0
DWIDTH 6 0
BBX 4 10 1 -2
BITMAP
90
60
00
F0
10
F0
90
F0
00
20
ENDCHAR
STARTCHAR uni1EB8
ENCODING -1
SWIDTH 600 0
DWIDTH 6 0
BBX 4 9 1 -2
BITMAP
F0
80
80
F0
80
80
F0
00
20
ENDCHAR
STARTCHAR uni1EB9
ENCODING -1
SWIDTH 600 0
DWIDTH 6 0
BBX 4 7 1 -2
BITMAP
60
90
F0
80
70
00
20
ENDCHAR
STARTCHAR uni1EBA
ENCODING -1
SWIDTH 600 0
DWIDTH 6 0
BBX 4 11 1 0
BITMAP
60
20
40
00
F0
80
80
F0
80
80
F0
ENDCHAR
STARTCHAR uni1EBB
ENCODING -1
SWIDTH 600 0
DWIDTH 6 0
BBX 4 9 1 0
BITMAP
30
10
20
00
60
90
F0
80
70
ENDCHAR
STARTCHAR uni1EBC
ENCODING -1
SWIDTH 600 0
DWIDTH 6 0
BBX 4 10 1 0
BITMAP
D0
B0
00
F0
80
80
F0
80
80
F0
ENDCHAR
STARTCHAR uni1EBD
ENCODING -1
SWIDTH 600 0
DWIDTH 6 0
BBX 4 8 1 0
BITMAP
D0
B0
00
60
90
F0
80
70
ENDCHAR
STARTCHAR uni1EBE
ENCODING -1
SWIDTH 600 0
DWIDTH 6 0
BBX 5 11 1 0
BITMAP
08
50
A0
00
F0
80
80
F0
80
80
F0
ENDCHAR
STARTCHAR uni1EBF
ENCODING -1
SWIDTH 600 0
DWIDTH 6 0
BBX 5 9 1 0
BITMAP
08
50
A0
00
60
90
F0
80
70
ENDCHAR
STARTCHAR uni1EC0
ENCODING -1
SWIDTH 600 0
DWIDTH 6 0
BBX 5 11 0 0
BITMAP
80
50
28
00
78
40
40
78
40
40
78
ENDCHAR
STARTCHAR uni1EC1
ENCODING -1
SWIDTH 600 0
DWIDTH 6 0
BBX 5 9 0 0
BITMAP
80
50
28
00
30
48
78
40
38
ENDCHAR
STARTCHAR uni1EC2
ENCODING -1
SWIDTH 600 0
DWIDTH 6 0
BBX 5 11 1 0
BITMAP
18
48
A0
00
F0
80
80
F0
80
80
F0
ENDCHAR
STARTCHAR uni1EC3
ENCODING -1
SWIDTH 600 0
DWIDTH 6 0
BBX 5 9 1 0
BITMAP
18
48
A0
00
60
90
F0
80
70
ENDCHAR
STARTCHAR uni1EC4
ENCODING -1
SWIDTH 600 0
DWIDTH 6 0
BBX 4 12 1 0
BITMAP
D0
B0
60
90
00
F0
80
80
F0
80
80
F0
ENDCHAR
STARTCHAR uni1EC5
ENCODING -1
SWIDTH 600 0
DWIDTH 6 0
BBX 4 10 1 0
BITMAP
D0
B0
60
90
00
60
90
F0
80
70
ENDCHAR
STARTCHAR uni1EC6
ENCODING -1
SWIDTH 600 0
DWIDTH 6 0
BBX 4 12 1 -2
BITMAP
20
50
00
F0
80
80
F0
80
80
F0
00
20
ENDCHAR
STARTCHAR uni1EC7
ENCODING -1
SWIDTH 600 0
DWIDTH 6 0
BBX 4 10 1 -2
BITMAP
20
50
00
60
90
F0
80
70
00
20
ENDCHAR
STARTCHAR uni1EC8
ENCODING -1
SWIDTH 600 0
DWIDTH 6 0
BBX 3 11 1 0
BITMAP
60
20
40
00
E0
40
40
40
40
40
E0
ENDCHAR
STARTCHAR uni1EC9
ENCODING -1
SWIDTH 600 0
DWIDTH 6 0
BBX 5 9 1 0
BITMAP
30
10
20
00
60
20
20
20
F8
ENDCHAR
STARTCHAR uni1ECA
ENCODING -1
SWIDTH 600 0
DWIDTH 6 0
BBX 3 9 1 -2
BITMAP
E0
40
40
40
40
40
E0
00
40
ENDCHAR
STARTCHAR uni1ECB
ENCODING -1
SWIDTH 600 0
DWIDTH 6 0
BBX 5 9 1 -2
BITMAP
20
00
60
20
20
20
F8
00
20
ENDCHAR
STARTCHAR uni1ECC
ENCODING -1
SWIDTH 600 0
DWIDTH 6 0
BBX 4 9 1 -2
BITMAP
60
90
90
90
90
90
60
00
20
ENDCHAR
STARTCHAR uni1ECD
ENCODING -1
SWIDTH 600 0
DWIDTH 6 0
BBX 4 7 1 -2
BITMAP
60
90
90
90
60
00
20
ENDCHAR
STARTCHAR uni1ECE
ENCODING -1
SWIDTH 600 0
DWIDTH 6 0
BBX 4 11 1 0
BITMAP
60
20
40
00
60
90
90
90
90
90
60
ENDCHAR
STARTCHAR uni1ECF
ENCODING -1
SWIDTH 600 0
DWIDTH 6 0
BBX 4 9 1 0
BITMAP
60
20
40
00
60
90
90
90
60
ENDCHAR
STARTCHAR uni1ED0
ENCODING -1
SWIDTH 600 0
DWIDTH 6 0
BBX 5 11 1 0
BITMAP
08
50
A0
00
60
90
90
90
90
90
60
ENDCHAR
STARTCHAR uni1ED1
ENCODING -1
SWIDTH 600 0
DWIDTH 6 0
BBX 5 9 1 0
BITMAP
08
50
A0
00
60
90
90
90
60
ENDCHAR
STARTCHAR uni1ED2
ENCODING -1
SWIDTH 600 0
DWIDTH 6 0
BBX 5 11 0 0
BITMAP
80
50
28
00
30
48
48
48
48
48
30
ENDCHAR
STARTCHAR uni1ED3
ENCODING -1
SWIDTH 600 0
DWIDTH 6 0
BBX 5 9 0 0
BITMAP
80
50
28
00
30
48
48
48
30
ENDCHAR
STARTCHAR uni1ED4
ENCODING -1
SWIDTH 600 0
DWIDTH 6 0
BBX 5 11 1 0
BITMAP
18
48
A0
00
60
90
90
90
90
90
60
ENDCHAR
STARTCHAR uni1ED5
ENCODING -1
SWIDTH 600 0
DWIDTH 6 0
BBX 5 9 1 0
BITMAP
18
48
A0
00
60
90
90
90
60
ENDCHAR
STARTCHAR uni1ED6
ENCODING -1
SWIDTH 600 0
DWIDTH 6 0
BBX 4 12 1 0
BITMAP
D0
B0
60
90
00
60
90
90
90
90
90
60
ENDCHAR
STARTCHAR uni1ED7
ENCODING -1
SWIDTH 600 0
DWIDTH 6 0
BBX 4 10 1 0
BITMAP
D0
B0
60
90
00
60
90
90
90
60
ENDCHAR
STARTCHAR uni1ED8
ENCODING -1
SWIDTH 600 0
DWIDTH 6 0
BBX 4 12 1 -2
BITMAP
20
50
00
60
90
90
90
90
90
60
00
20
ENDCHAR
STARTCHAR uni1ED9
ENCODING -1
SWIDTH 600 0
DWIDTH 6 0
BBX 4 10 1 -2
BITMAP
20
50
00
60
90
90
90
60
00
20
ENDCHAR
STARTCHAR uni1EDA
ENCODING -1
SWIDTH 600 0
DWIDTH 6 0
BBX 5 10 1 0
BITMAP
10
20
08
68
90
90
90
90
90
60
ENDCHAR
STARTCHAR uni1EDB
ENCODING -1
SWIDTH 600 0
DWIDTH 6 0
BBX 5 8 1 0
BITMAP
10
20
08
70
90
90
90
60
ENDCHAR
STARTCHAR uni1EDC
ENCODING -1
SWIDTH 600 0
DWIDTH 6 0
BBX 5 10 1 0
BITMAP
40
20
08
68
90
90
90
90
90
60
ENDCHAR
STARTCHAR uni1EDD
ENCODING -1
SWIDTH 600 0
DWIDTH 6 0
BBX 5 8 1 0
BITMAP
40
20
08
70
90
90
90
60
ENDCHAR
STARTCHAR uni1EDE
ENCODING -1
SWIDTH 600 0
DWIDTH 6 0
BBX 5 11 1 0
BITMAP
30
10
20
08
68
90
90
90
90
90
60
ENDCHAR
STARTCHAR uni1EDF
ENCODING -1
SWIDTH 600 0
DWIDTH 6 0
BBX 5 9 1 0
BITMAP
30
10
20
08
70
90
90
90
60
ENDCHAR
STARTCHAR uni1EE0
ENCODING -1
SWIDTH 600 0
DWIDTH 6 0
BBX 5 10 1 0
BITMAP
D0
B0
08
68
90
90
90
90
90
60
ENDCHAR
STARTCHAR uni1EE1
ENCODING -1
SWIDTH 600 0
DWIDTH 6 0
BBX 5 8 1 0
BITMAP
D0
B0
08
70
90
90
90
60
ENDCHAR
STARTCHAR uni1EE2
ENCODING -1
SWIDTH 600 0
DWIDTH 6 0
BBX 5 10 1 -2
BITMAP
08
68
90
90
90
90
90
60
00
20
ENDCHAR
STARTCHAR uni1EE3
ENCODING -1
SWIDTH 600 0
DWIDTH 6 0
BBX 5 8 1 -2
BITMAP
08
70
90
90
90
60
00
20
ENDCHAR
STARTCHAR uni1EE4
ENCODING -1
SWIDTH 600 0
DWIDTH 6 0
BBX 4 9 1 -2
BITMAP
90
90
90
90
90
90
60
00
20
ENDCHAR
STARTCHAR uni1EE5
ENCODING -1
SWIDTH 600 0
DWIDTH 6 0
BBX 4 7 1 -2
BITMAP
90
90
90
90
F0
00
20
ENDCHAR
STARTCHAR uni1EE6
ENCODING -1
SWIDTH 600 0
DWIDTH 6 0
BBX 4 11 1 0
BITMAP
60
20
40
00
90
90
90
90
90
90
60
ENDCHAR
STARTCHAR uni1EE7
ENCODING -1
SWIDTH 600 0
DWIDTH 6 0
BBX 4 9 1 0
BITMAP
60
20
40
00
90
90
90
90
F0
ENDCHAR
STARTCHAR uni1EE8
ENCODING -1
SWIDTH 600 0
DWIDTH 6 0
BBX 6 10 1 0
BITMAP
10
20
04
94
98
90
90
90
90
60
ENDCHAR
STARTCHAR uni1EE9
ENCODING -1
SWIDTH 600 0
DWIDTH 6 0
BBX 5 8 1 0
BITMAP
20
40
08
98
90
90
90
F0
ENDCHAR
STARTCHAR uni1EEA
ENCODING -1
SWIDTH 600 0
DWIDTH 6 0
BBX 6 10 1 0
BITMAP
40
20
04
94
98
90
90
90
90
60
ENDCHAR
STARTCHAR uni1EEB
ENCODING -1
SWIDTH 600 0
DWIDTH 6 0
BBX 5 8 1 0
BITMAP
80
40
08
98
90
90
90
F0
ENDCHAR
STARTCHAR uni1EEC
ENCODING -1
SWIDTH 600 0
DWIDTH 6 0
BBX 6 11 1 0
BITMAP
30
10
20
04
94
98
90
90
90
90
60
ENDCHAR
STARTCHAR uni1EED
ENCODING -1
SWIDTH 600 0
DWIDTH 6 0
BBX 5 9 1 0
BITMAP
60
20
40
08
98
90
90
90
F0
ENDCHAR
STARTCHAR uni1EEE
ENCODING -1
SWIDTH 600 0
DWIDTH 6 0
BBX 6 10 1 0
BITMAP
D0
B0
04
94
98
90
90
90
90
60
ENDCHAR
STARTCHAR uni1EEF
ENCODING -1
SWIDTH 600 0
DWIDTH 6 0
BBX 5 8 1 0
BITMAP
D0
B0
08
98
90
90
90
F0
ENDCHAR
STARTCHAR uni1EF0
ENCODING -1
SWIDTH 600 0
DWIDTH 6 0
BBX 6 10 1 -2
BITMAP
04
94
98
90
90
90
90
60
00
20
ENDCHAR
STARTCHAR uni1EF1
ENCODING -1
SWIDTH 600 0
DWIDTH 6 0
BBX 5 8 1 -2
BITMAP
08
98
90
90
90
F0
00
40
ENDCHAR
STARTCHAR uni1EF4
ENCODING -1
SWIDTH 600 0
DWIDTH 6 0
BBX 5 9 0 -2
BITMAP
88
50
50
20
20
20
20
00
20
ENDCHAR
STARTCHAR uni1EF5
ENCODING -1
SWIDTH 600 0
DWIDTH 6 0
BBX 4 7 1 -2
BITMAP
90
90
60
60
20
40
D0
ENDCHAR
STARTCHAR uni1EF6
ENCODING -1
SWIDTH 600 0
DWIDTH 6 0
BBX 5 11 0 0
BITMAP
30
10
20
00
88
50
50
20
20
20
20
ENDCHAR
STARTCHAR uni1EF7
ENCODING -1
SWIDTH 600 0
DWIDTH 6 0
BBX 4 11 1 -2
BITMAP
60
20
40
00
90
90
60
60
20
40
C0
ENDCHAR
STARTCHAR uni1EF8
ENCODING -1
SWIDTH 600 0
DWIDTH 6 0
BBX 5 10 0 0
BITMAP
68
58
00
88
50
50
20
20
20
20
ENDCHAR
STARTCHAR uni1EF9
ENCODING -1
SWIDTH 600 0
DWIDTH 6 0
BBX 4 10 1 -2
BITMAP
D0
B0
00
90
90
60
60
20
40
C0
ENDCHAR
STARTCHAR dong
ENCODING -1
SWIDTH 600 0
DWIDTH 6 0
BBX 5 9 1 -2
BITMAP
10
38
10
F0
90
90
F0
00
F0
ENDCHAR
STARTCHAR uni030F
ENCODING -1
SWIDTH 600 0
DWIDTH 6 0
BBX 4 2 1 6
BITMAP
A0
50
ENDCHAR
STARTCHAR glyph884
ENCODING -1
SWIDTH 600 0
DWIDTH 6 0
BBX 5 3 1 6
BITMAP
08
50
A0
ENDCHAR
STARTCHAR glyph885
ENCODING -1
SWIDTH 600 0
DWIDTH 6 0
BBX 5 3 0 6
BITMAP
80
50
28
ENDCHAR
STARTCHAR glyph886
ENCODING -1
SWIDTH 600 0
DWIDTH 6 0
BBX 5 3 1 6
BITMAP
18
48
A0
ENDCHAR
STARTCHAR glyph887
ENCODING -1
SWIDTH 600 0
DWIDTH 6 0
BBX 4 4 1 6
BITMAP
D0
B0
60
90
ENDCHAR
STARTCHAR glyph888
ENCODING -1
SWIDTH 600 0
DWIDTH 6 0
BBX 3 4 2 6
BITMAP
20
40
A0
E0
ENDCHAR
STARTCHAR glyph889
ENCODING -1
SWIDTH 600 0
DWIDTH 6 0
BBX 3 4 2 6
BITMAP
80
40
A0
E0
ENDCHAR
STARTCHAR glyph890
ENCODING -1
SWIDTH 600 0
DWIDTH 6 0
BBX 3 4 2 6
BITMAP
20
20
A0
E0
ENDCHAR
STARTCHAR glyph891
ENCODING -1
SWIDTH 600 0
DWIDTH 6 0
BBX 3 4 1 6
BITMAP
E0
E0
A0
E0
ENDCHAR
STARTCHAR glyph892
ENCODING -1
SWIDTH 600 0
DWIDTH 6 0
BBX 2 2 2 -2
BITMAP
40
C0
ENDCHAR
STARTCHAR glyph893
ENCODING -1
SWIDTH 600 0
DWIDTH 6 0
BBX 2 3 2 -2
BITMAP
40
40
C0
ENDCHAR
STARTCHAR glyph894
ENCODING -1
SWIDTH 600 0
DWIDTH 6 0
BBX 2 3 2 -2
BITMAP
40
40
C0
ENDCHAR
STARTCHAR uni0162
ENCODING -1
SWIDTH 600 0
DWIDTH 6 0
BBX 5 9 0 -2
BITMAP
F8
20
20
20
20
20
20
00
30
ENDCHAR
STARTCHAR uni0163
ENCODING -1
SWIDTH 600 0
DWIDTH 6 0
BBX 4 8 1 -2
BITMAP
40
F0
40
40
40
70
00
60
ENDCHAR
ENDFONT
